G75*
%MOIN*%
%OFA0B0*%
%FSLAX24Y24*%
%IPPOS*%
%LPD*%
%AMOC8*
5,1,8,0,0,1.08239X$1,22.5*
%
%ADD10R,0.0276X0.0591*%
%ADD11R,0.0591X0.0297*%
%ADD12R,0.0591X0.0276*%
%ADD13C,0.0600*%
%ADD14R,0.0200X0.0480*%
%ADD15R,0.0211X0.0215*%
%ADD16R,0.0433X0.0433*%
%ADD17R,0.0551X0.0394*%
%ADD18R,0.0400X0.0240*%
%ADD19R,0.1102X0.0945*%
%ADD20R,0.0571X0.0354*%
%ADD21R,0.0370X0.0300*%
%ADD22R,0.0600X0.0600*%
%ADD23R,0.1950X0.1950*%
%ADD24C,0.0160*%
%ADD25C,0.0396*%
D10*
X017573Y008305D03*
X017967Y008305D03*
X018360Y008305D03*
X018754Y008305D03*
X019148Y008305D03*
X019542Y008305D03*
X019935Y008305D03*
X021116Y008305D03*
X021510Y008305D03*
X021904Y008305D03*
X022297Y008305D03*
X022691Y008305D03*
X023085Y008305D03*
X023479Y008305D03*
D11*
X024100Y007683D03*
D12*
X024100Y007289D03*
X024100Y006896D03*
X024100Y006502D03*
X024100Y006108D03*
X024100Y005715D03*
X024100Y005321D03*
X024100Y004927D03*
X024100Y004534D03*
X016951Y004534D03*
X016951Y004927D03*
X016951Y005321D03*
X016951Y005715D03*
X016951Y006108D03*
X016951Y006502D03*
X016951Y006896D03*
X016951Y007289D03*
X016951Y007683D03*
D13*
X014849Y013084D02*
X014849Y013684D01*
X013849Y013684D02*
X013849Y013084D01*
X012849Y013084D02*
X012849Y013684D01*
X011849Y013684D02*
X011849Y013084D01*
X010849Y013084D02*
X010849Y013684D01*
X009849Y013684D02*
X009849Y013084D01*
X008849Y013084D02*
X008849Y013684D01*
X007849Y013684D02*
X007849Y013084D01*
X006849Y013084D02*
X006849Y013684D01*
X005849Y013684D02*
X005849Y013084D01*
D14*
X006479Y009834D03*
X006849Y009834D03*
X007219Y009834D03*
X007219Y008934D03*
X006849Y008934D03*
X006479Y008934D03*
D15*
X006560Y007777D03*
X006901Y007777D03*
X006822Y010293D03*
X006481Y010293D03*
D16*
X010061Y009600D03*
X010061Y011135D03*
D17*
X012388Y008498D03*
X012388Y007750D03*
X011522Y008124D03*
D18*
X010612Y008065D03*
X009692Y008435D03*
X009692Y007695D03*
D19*
X002109Y001639D03*
X004510Y001639D03*
X004510Y006128D03*
X002109Y006128D03*
D20*
X008349Y008832D03*
X008349Y009935D03*
D21*
X005471Y008804D03*
X005471Y008144D03*
X004455Y009054D03*
X004455Y009714D03*
D22*
X030530Y003758D03*
X036430Y003758D03*
D23*
X036430Y014458D03*
X030530Y014458D03*
D24*
X024034Y010450D02*
X024034Y007750D01*
X024100Y007683D01*
X024089Y007301D02*
X024100Y007289D01*
X024089Y007301D02*
X020884Y007301D01*
X020490Y007695D01*
X020490Y013600D01*
X019900Y014191D01*
X010057Y014191D01*
X009849Y013982D01*
X009849Y013384D01*
X010289Y013326D02*
X010409Y013326D01*
X010409Y013168D02*
X010289Y013168D01*
X010289Y013009D02*
X010409Y013009D01*
X010409Y012996D02*
X010476Y012834D01*
X010599Y012710D01*
X010761Y012644D01*
X010900Y012644D01*
X010950Y012593D01*
X011344Y012593D01*
X011688Y012249D01*
X011688Y012155D01*
X011739Y012031D01*
X011834Y011935D01*
X011959Y011884D01*
X012093Y011884D01*
X012217Y011935D01*
X012312Y012031D01*
X012364Y012155D01*
X012364Y012289D01*
X012312Y012414D01*
X012217Y012509D01*
X012093Y012560D01*
X011999Y012560D01*
X011916Y012644D01*
X011936Y012644D01*
X012098Y012710D01*
X012222Y012834D01*
X012289Y012996D01*
X012289Y013771D01*
X012222Y013933D01*
X012184Y013971D01*
X012513Y013971D01*
X012476Y013933D01*
X012409Y013771D01*
X012409Y012996D01*
X012476Y012834D01*
X012599Y012710D01*
X012761Y012644D01*
X012936Y012644D01*
X013098Y012710D01*
X013222Y012834D01*
X013289Y012996D01*
X013289Y013771D01*
X013222Y013933D01*
X013184Y013971D01*
X013513Y013971D01*
X013476Y013933D01*
X013409Y013771D01*
X013409Y012996D01*
X013476Y012834D01*
X013599Y012710D01*
X013761Y012644D01*
X013936Y012644D01*
X014098Y012710D01*
X014222Y012834D01*
X014289Y012996D01*
X014289Y013771D01*
X014222Y013933D01*
X014184Y013971D01*
X014464Y013971D01*
X014438Y013935D01*
X014404Y013868D01*
X014380Y013796D01*
X014369Y013721D01*
X014369Y013404D01*
X014829Y013404D01*
X014829Y013364D01*
X014369Y013364D01*
X014369Y013046D01*
X014380Y012971D01*
X014404Y012899D01*
X014438Y012832D01*
X014483Y012771D01*
X014536Y012717D01*
X014597Y012673D01*
X014664Y012639D01*
X014736Y012615D01*
X014811Y012604D01*
X014829Y012604D01*
X014829Y013364D01*
X014869Y013364D01*
X014869Y013404D01*
X015329Y013404D01*
X015329Y013721D01*
X015317Y013796D01*
X015293Y013868D01*
X015259Y013935D01*
X015233Y013971D01*
X019809Y013971D01*
X020270Y013509D01*
X020270Y007603D01*
X020793Y007081D01*
X023665Y007081D01*
X023665Y006700D01*
X023666Y006699D01*
X023665Y006698D01*
X023665Y006306D01*
X023666Y006305D01*
X023665Y006304D01*
X023665Y005913D01*
X023666Y005912D01*
X023665Y005910D01*
X023665Y005519D01*
X023666Y005518D01*
X023665Y005517D01*
X023665Y005125D01*
X023666Y005124D01*
X023665Y005123D01*
X023665Y004754D01*
X021774Y004754D01*
X020907Y005620D01*
X020907Y005620D01*
X020778Y005749D01*
X018189Y005749D01*
X018123Y005816D01*
X017999Y005867D01*
X017864Y005867D01*
X017740Y005816D01*
X017645Y005721D01*
X017593Y005596D01*
X017593Y005462D01*
X017645Y005338D01*
X017740Y005243D01*
X017387Y005243D01*
X017387Y005125D02*
X017387Y005517D01*
X017386Y005518D01*
X017387Y005519D01*
X017387Y005910D01*
X017386Y005912D01*
X017387Y005913D01*
X017387Y006304D01*
X017386Y006305D01*
X017387Y006306D01*
X017387Y006698D01*
X017386Y006699D01*
X017387Y006700D01*
X017387Y007092D01*
X017386Y007093D01*
X017387Y007094D01*
X017387Y007485D01*
X017386Y007486D01*
X017387Y007487D01*
X017387Y007869D01*
X017769Y007869D01*
X017770Y007871D01*
X017771Y007869D01*
X018163Y007869D01*
X018164Y007871D01*
X018165Y007869D01*
X018556Y007869D01*
X018557Y007871D01*
X018558Y007869D01*
X018950Y007869D01*
X018951Y007871D01*
X018952Y007869D01*
X019344Y007869D01*
X019345Y007871D01*
X019346Y007869D01*
X019737Y007869D01*
X019738Y007871D01*
X019739Y007869D01*
X020131Y007869D01*
X020213Y007952D01*
X020213Y008658D01*
X020131Y008740D01*
X019739Y008740D01*
X019738Y008739D01*
X019737Y008740D01*
X019346Y008740D01*
X019345Y008739D01*
X019344Y008740D01*
X018952Y008740D01*
X018951Y008739D01*
X018950Y008740D01*
X018558Y008740D01*
X018557Y008739D01*
X018556Y008740D01*
X018165Y008740D01*
X018164Y008739D01*
X018163Y008740D01*
X017771Y008740D01*
X017770Y008739D01*
X017769Y008740D01*
X017377Y008740D01*
X017295Y008658D01*
X017295Y007961D01*
X016598Y007961D01*
X016516Y007879D01*
X016516Y007487D01*
X016517Y007486D01*
X016516Y007485D01*
X016516Y007094D01*
X016517Y007093D01*
X016516Y007092D01*
X016516Y006700D01*
X016517Y006699D01*
X016516Y006698D01*
X016516Y006306D01*
X016517Y006305D01*
X016516Y006304D01*
X016516Y005913D01*
X016517Y005912D01*
X016516Y005910D01*
X016516Y005519D01*
X016517Y005518D01*
X016516Y005517D01*
X016516Y005125D01*
X016517Y005124D01*
X016516Y005123D01*
X016516Y004786D01*
X016512Y004782D01*
X016488Y004741D01*
X016476Y004695D01*
X016476Y004534D01*
X016951Y004534D01*
X016951Y004534D01*
X016476Y004534D01*
X016476Y004372D01*
X016488Y004326D01*
X016512Y004285D01*
X016546Y004252D01*
X016587Y004228D01*
X016632Y004216D01*
X016951Y004216D01*
X016951Y004534D01*
X020502Y004534D01*
X021278Y003758D01*
X029152Y003758D01*
X029939Y002970D01*
X035642Y002970D01*
X036430Y003758D01*
X030530Y003758D02*
X029546Y003758D01*
X029152Y004151D01*
X021278Y004151D01*
X020490Y004939D01*
X017931Y004939D01*
X017593Y004926D02*
X017387Y004926D01*
X017387Y004786D02*
X017387Y005123D01*
X017386Y005124D01*
X017387Y005125D01*
X017387Y005084D02*
X017626Y005084D01*
X017645Y005130D02*
X017593Y005006D01*
X017593Y004871D01*
X017645Y004747D01*
X017740Y004652D01*
X017864Y004601D01*
X017999Y004601D01*
X018123Y004652D01*
X018189Y004719D01*
X020399Y004719D01*
X020967Y004151D01*
X014585Y004151D01*
X014585Y006005D01*
X015625Y004966D01*
X015625Y004871D01*
X015676Y004747D01*
X015771Y004652D01*
X015896Y004601D01*
X016030Y004601D01*
X016154Y004652D01*
X016249Y004747D01*
X016301Y004871D01*
X016301Y005006D01*
X016249Y005130D01*
X016154Y005225D01*
X016030Y005277D01*
X015936Y005277D01*
X014585Y006628D01*
X014585Y011632D01*
X009384Y011632D01*
X009558Y011805D01*
X010390Y011805D01*
X010456Y011739D01*
X010581Y011687D01*
X010715Y011687D01*
X010839Y011739D01*
X010935Y011834D01*
X010986Y011958D01*
X010986Y012092D01*
X010935Y012217D01*
X010839Y012312D01*
X010715Y012363D01*
X010581Y012363D01*
X010456Y012312D01*
X010390Y012245D01*
X009376Y012245D01*
X009247Y012116D01*
X008762Y011632D01*
X004939Y011632D01*
X004939Y014720D01*
X006930Y014720D01*
X006885Y014675D01*
X006629Y014420D01*
X006629Y014069D01*
X006599Y014057D01*
X006476Y013933D01*
X006409Y013771D01*
X006409Y012996D01*
X006476Y012834D01*
X006599Y012710D01*
X006761Y012644D01*
X006936Y012644D01*
X007098Y012710D01*
X007222Y012834D01*
X007289Y012996D01*
X007289Y013771D01*
X007222Y013933D01*
X007098Y014057D01*
X007069Y014069D01*
X007069Y014237D01*
X007196Y014364D01*
X009920Y014364D01*
X009837Y014282D01*
X009629Y014073D01*
X009629Y014069D01*
X009599Y014057D01*
X009476Y013933D01*
X009409Y013771D01*
X009409Y012996D01*
X009476Y012834D01*
X009599Y012710D01*
X009761Y012644D01*
X009936Y012644D01*
X010098Y012710D01*
X010222Y012834D01*
X010289Y012996D01*
X010289Y013771D01*
X010222Y013933D01*
X010184Y013971D01*
X010513Y013971D01*
X010476Y013933D01*
X010409Y013771D01*
X010409Y012996D01*
X010469Y012851D02*
X010229Y012851D01*
X010054Y012692D02*
X010643Y012692D01*
X010849Y013006D02*
X011042Y012813D01*
X011435Y012813D01*
X012026Y012222D01*
X012364Y012217D02*
X020270Y012217D01*
X020270Y012375D02*
X012328Y012375D01*
X012157Y012534D02*
X020270Y012534D01*
X020270Y012692D02*
X015127Y012692D01*
X015100Y012673D02*
X015161Y012717D01*
X015215Y012771D01*
X015259Y012832D01*
X015293Y012899D01*
X015317Y012971D01*
X015329Y013046D01*
X015329Y013364D01*
X014869Y013364D01*
X014869Y012604D01*
X014886Y012604D01*
X014961Y012615D01*
X015033Y012639D01*
X015100Y012673D01*
X014869Y012692D02*
X014829Y012692D01*
X014829Y012851D02*
X014869Y012851D01*
X014869Y013009D02*
X014829Y013009D01*
X014829Y013168D02*
X014869Y013168D01*
X014869Y013326D02*
X014829Y013326D01*
X014782Y013317D02*
X014849Y013384D01*
X014782Y013317D02*
X014782Y011828D01*
X014585Y011632D01*
X014585Y006628D01*
X012998Y008215D01*
X012869Y008344D01*
X012804Y008344D01*
X012804Y008753D01*
X012722Y008835D01*
X012608Y008835D01*
X012608Y009983D01*
X011262Y011329D01*
X011133Y011458D01*
X010370Y011458D01*
X010336Y011492D01*
X009787Y011492D01*
X009705Y011410D01*
X009705Y010861D01*
X009787Y010779D01*
X009837Y010779D01*
X009837Y010359D01*
X009966Y010230D01*
X010240Y009957D01*
X009787Y009957D01*
X009705Y009875D01*
X009705Y009326D01*
X009787Y009244D01*
X010107Y009244D01*
X010392Y008958D01*
X010392Y008325D01*
X010354Y008325D01*
X010272Y008243D01*
X010272Y007915D01*
X009990Y007915D01*
X009950Y007955D01*
X009434Y007955D01*
X009352Y007873D01*
X009352Y007517D01*
X009434Y007435D01*
X009950Y007435D01*
X009990Y007475D01*
X011993Y007475D01*
X012054Y007413D01*
X012722Y007413D01*
X012804Y007495D01*
X012804Y007787D01*
X014585Y006005D01*
X014585Y001244D01*
X005201Y001244D01*
X005201Y002170D01*
X005119Y002252D01*
X003901Y002252D01*
X003819Y002170D01*
X003819Y001859D01*
X002800Y001859D01*
X002800Y002170D01*
X002718Y002252D01*
X001650Y002252D01*
X001650Y003381D01*
X001723Y003307D01*
X001973Y003204D01*
X002244Y003204D01*
X002494Y003307D01*
X002685Y003498D01*
X002789Y003748D01*
X002789Y004019D01*
X002685Y004269D01*
X002494Y004460D01*
X002244Y004564D01*
X001973Y004564D01*
X001723Y004460D01*
X001650Y004386D01*
X001650Y005515D01*
X002718Y005515D01*
X002800Y005597D01*
X002800Y006508D01*
X002979Y006687D01*
X003848Y006687D01*
X003819Y006658D01*
X003819Y005597D01*
X003901Y005515D01*
X005119Y005515D01*
X005201Y005597D01*
X005201Y006658D01*
X005172Y006687D01*
X008785Y006687D01*
X009247Y006225D01*
X009376Y006097D01*
X010936Y006097D01*
X011015Y006175D01*
X011109Y006175D01*
X011233Y006227D01*
X011328Y006322D01*
X011380Y006446D01*
X011380Y006581D01*
X011328Y006705D01*
X011233Y006800D01*
X011109Y006852D01*
X010974Y006852D01*
X010850Y006800D01*
X010755Y006705D01*
X010703Y006581D01*
X010703Y006537D01*
X009558Y006537D01*
X008967Y007127D01*
X004833Y007127D01*
X004675Y007286D01*
X004675Y008764D01*
X004698Y008764D01*
X004780Y008846D01*
X004780Y009262D01*
X004698Y009344D01*
X004212Y009344D01*
X004130Y009262D01*
X004130Y008846D01*
X004212Y008764D01*
X004235Y008764D01*
X004235Y007392D01*
X003970Y007127D01*
X002797Y007127D01*
X002668Y006998D01*
X002410Y006740D01*
X001650Y006740D01*
X001650Y011632D01*
X001984Y011632D01*
X002328Y011358D01*
X002794Y011175D01*
X003293Y011137D01*
X003781Y011249D01*
X003781Y011249D01*
X004215Y011499D01*
X004215Y011499D01*
X004338Y011632D01*
X008762Y011632D01*
X008656Y011526D01*
X008656Y010252D01*
X008005Y010252D01*
X007923Y010170D01*
X007923Y010054D01*
X007459Y010054D01*
X007459Y010132D01*
X007377Y010214D01*
X007108Y010214D01*
X007108Y010293D01*
X007108Y010424D01*
X007096Y010470D01*
X007072Y010511D01*
X007038Y010544D01*
X006997Y010568D01*
X006952Y010580D01*
X006822Y010580D01*
X006693Y010580D01*
X006647Y010568D01*
X006606Y010544D01*
X006602Y010540D01*
X006318Y010540D01*
X006251Y010474D01*
X006182Y010474D01*
X006115Y010540D01*
X005991Y010592D01*
X005856Y010592D01*
X005732Y010540D01*
X005637Y010445D01*
X005585Y010321D01*
X005585Y010186D01*
X005637Y010062D01*
X005732Y009967D01*
X005856Y009915D01*
X005991Y009915D01*
X006115Y009967D01*
X006182Y010034D01*
X006239Y010034D01*
X006239Y009536D01*
X006321Y009454D01*
X006634Y009454D01*
X006638Y009449D01*
X006679Y009426D01*
X006725Y009414D01*
X006849Y009414D01*
X006972Y009414D01*
X007018Y009426D01*
X007059Y009449D01*
X007063Y009454D01*
X007377Y009454D01*
X007459Y009536D01*
X007459Y009614D01*
X008339Y009614D01*
X008343Y009618D01*
X008656Y009618D01*
X008656Y009149D01*
X008005Y009149D01*
X007923Y009067D01*
X007923Y009052D01*
X007459Y009052D01*
X007459Y009232D01*
X007377Y009314D01*
X007061Y009314D01*
X007034Y009287D01*
X007007Y009314D01*
X006691Y009314D01*
X006664Y009287D01*
X006637Y009314D01*
X006321Y009314D01*
X006239Y009232D01*
X006239Y009154D01*
X005509Y009154D01*
X005450Y009094D01*
X005228Y009094D01*
X005146Y009012D01*
X005146Y008596D01*
X005228Y008514D01*
X005714Y008514D01*
X005796Y008596D01*
X005796Y008714D01*
X006239Y008714D01*
X006239Y008636D01*
X006321Y008554D01*
X006629Y008554D01*
X006629Y008317D01*
X006469Y008157D01*
X006340Y008029D01*
X006340Y007997D01*
X005929Y007997D01*
X005796Y008130D01*
X005796Y008352D01*
X005714Y008434D01*
X005228Y008434D01*
X005146Y008352D01*
X005146Y007936D01*
X005228Y007854D01*
X005450Y007854D01*
X005618Y007686D01*
X005746Y007557D01*
X006369Y007557D01*
X006397Y007530D01*
X006681Y007530D01*
X006685Y007526D01*
X006726Y007502D01*
X006772Y007490D01*
X006901Y007490D01*
X006901Y007777D01*
X006901Y007777D01*
X006901Y007490D01*
X007030Y007490D01*
X007076Y007502D01*
X007117Y007526D01*
X007151Y007559D01*
X007174Y007600D01*
X007187Y007646D01*
X007187Y007777D01*
X006901Y007777D01*
X006901Y007777D01*
X006901Y007504D01*
X007105Y007301D01*
X007301Y007301D01*
X007180Y007620D02*
X009352Y007620D01*
X009352Y007779D02*
X007187Y007779D01*
X007187Y007777D02*
X007187Y007868D01*
X008574Y007868D01*
X008967Y008262D01*
X009096Y008391D01*
X009096Y011344D01*
X009384Y011632D01*
X014585Y011632D01*
X009664Y011632D01*
X009270Y011238D01*
X009270Y008857D01*
X009692Y008435D01*
X009692Y008435D01*
X009692Y008735D01*
X009916Y008735D01*
X009961Y008722D01*
X010002Y008699D01*
X010036Y008665D01*
X010060Y008624D01*
X010072Y008578D01*
X010072Y008435D01*
X009692Y008435D01*
X009692Y008435D01*
X009692Y008735D01*
X009468Y008735D01*
X009422Y008722D01*
X009381Y008699D01*
X009348Y008665D01*
X009324Y008624D01*
X009312Y008578D01*
X009312Y008435D01*
X009692Y008435D01*
X009034Y007777D01*
X008876Y007777D01*
X009746Y006907D01*
X011632Y006907D01*
X014006Y004534D01*
X016951Y004534D01*
X016951Y004534D01*
X017427Y004534D01*
X017427Y004695D01*
X017414Y004741D01*
X017391Y004782D01*
X017387Y004786D01*
X017399Y004767D02*
X017636Y004767D01*
X017844Y004609D02*
X017427Y004609D01*
X017427Y004534D02*
X016951Y004534D01*
X016951Y004534D01*
X016951Y004216D01*
X017270Y004216D01*
X017316Y004228D01*
X017357Y004252D01*
X017391Y004285D01*
X017414Y004326D01*
X017427Y004372D01*
X017427Y004534D01*
X017427Y004450D02*
X020668Y004450D01*
X020826Y004292D02*
X017395Y004292D01*
X016951Y004292D02*
X016951Y004292D01*
X016951Y004450D02*
X016951Y004450D01*
X016508Y004292D02*
X014585Y004292D01*
X013847Y004292D01*
X013861Y004284D02*
X013427Y004534D01*
X012939Y004645D01*
X012439Y004608D01*
X011973Y004425D01*
X011582Y004113D01*
X011582Y004113D01*
X011582Y004113D01*
X011300Y003699D01*
X011152Y003221D01*
X011152Y002720D01*
X011300Y002241D01*
X011582Y001827D01*
X011973Y001515D01*
X011973Y001515D01*
X012439Y001332D01*
X012939Y001295D01*
X013427Y001406D01*
X013861Y001657D01*
X014201Y002024D01*
X014419Y002475D01*
X014493Y002970D01*
X014419Y003465D01*
X014419Y003465D01*
X014201Y003917D01*
X013861Y004284D01*
X013861Y004284D01*
X014000Y004133D02*
X014585Y004133D01*
X014585Y003975D02*
X014147Y003975D01*
X014201Y003917D02*
X014201Y003917D01*
X014250Y003816D02*
X014585Y003816D01*
X014585Y003658D02*
X014326Y003658D01*
X014402Y003499D02*
X014585Y003499D01*
X014585Y003341D02*
X014437Y003341D01*
X014461Y003182D02*
X014585Y003182D01*
X014585Y003024D02*
X014485Y003024D01*
X014477Y002865D02*
X014585Y002865D01*
X014585Y002707D02*
X014454Y002707D01*
X014430Y002548D02*
X014585Y002548D01*
X014585Y002390D02*
X014378Y002390D01*
X014419Y002475D02*
X014419Y002475D01*
X014301Y002231D02*
X014585Y002231D01*
X014585Y002073D02*
X014225Y002073D01*
X014201Y002024D02*
X014201Y002024D01*
X014100Y001914D02*
X014585Y001914D01*
X014585Y001756D02*
X013953Y001756D01*
X013861Y001657D02*
X013861Y001657D01*
X013861Y001657D01*
X013758Y001597D02*
X014585Y001597D01*
X014585Y001439D02*
X013483Y001439D01*
X013427Y001406D02*
X013427Y001406D01*
X012939Y001295D02*
X012939Y001295D01*
X012439Y001332D02*
X012439Y001332D01*
X012168Y001439D02*
X005201Y001439D01*
X005201Y001597D02*
X011870Y001597D01*
X011672Y001756D02*
X005201Y001756D01*
X005201Y001914D02*
X011522Y001914D01*
X011582Y001827D02*
X011582Y001827D01*
X011582Y001827D01*
X011414Y002073D02*
X005201Y002073D01*
X005140Y002231D02*
X011306Y002231D01*
X011300Y002241D02*
X011300Y002241D01*
X011254Y002390D02*
X001650Y002390D01*
X001650Y002548D02*
X011205Y002548D01*
X011156Y002707D02*
X001650Y002707D01*
X001650Y002865D02*
X011152Y002865D01*
X011152Y003024D02*
X001650Y003024D01*
X001650Y003182D02*
X011152Y003182D01*
X011189Y003341D02*
X004327Y003341D01*
X004294Y003307D02*
X004485Y003498D01*
X004589Y003748D01*
X004589Y004019D01*
X004485Y004269D01*
X004294Y004460D01*
X004044Y004564D01*
X003773Y004564D01*
X003523Y004460D01*
X003332Y004269D01*
X003229Y004019D01*
X003229Y003748D01*
X003332Y003498D01*
X003523Y003307D01*
X003773Y003204D01*
X004044Y003204D01*
X004294Y003307D01*
X004485Y003499D02*
X011238Y003499D01*
X011287Y003658D02*
X004551Y003658D01*
X004589Y003816D02*
X011380Y003816D01*
X011300Y003699D02*
X011300Y003699D01*
X011488Y003975D02*
X004589Y003975D01*
X004541Y004133D02*
X011607Y004133D01*
X011806Y004292D02*
X004462Y004292D01*
X004303Y004450D02*
X012038Y004450D01*
X011973Y004425D02*
X011973Y004425D01*
X012439Y004608D02*
X012439Y004608D01*
X012450Y004609D02*
X001650Y004609D01*
X001650Y004767D02*
X014585Y004767D01*
X015668Y004767D01*
X015625Y004926D02*
X014585Y004926D01*
X001650Y004926D01*
X001650Y005084D02*
X014585Y005084D01*
X015506Y005084D01*
X015348Y005243D02*
X014585Y005243D01*
X001650Y005243D01*
X001650Y005401D02*
X014585Y005401D01*
X015189Y005401D01*
X015031Y005560D02*
X014585Y005560D01*
X005164Y005560D01*
X005201Y005718D02*
X014585Y005718D01*
X014872Y005718D01*
X014714Y005877D02*
X014585Y005877D01*
X005201Y005877D01*
X005201Y006035D02*
X014555Y006035D01*
X014397Y006194D02*
X011153Y006194D01*
X011341Y006352D02*
X014238Y006352D01*
X014080Y006511D02*
X011380Y006511D01*
X011343Y006669D02*
X013921Y006669D01*
X013763Y006828D02*
X011166Y006828D01*
X010917Y006828D02*
X009267Y006828D01*
X009425Y006669D02*
X010740Y006669D01*
X011042Y006513D02*
X010845Y006317D01*
X009467Y006317D01*
X008876Y006907D01*
X004742Y006907D01*
X004455Y007195D01*
X004455Y007293D01*
X004455Y007301D01*
X004061Y006907D01*
X002888Y006907D01*
X002109Y006128D01*
X002800Y006194D02*
X003819Y006194D01*
X003819Y006352D02*
X002800Y006352D01*
X002803Y006511D02*
X003819Y006511D01*
X003830Y006669D02*
X002961Y006669D01*
X002656Y006986D02*
X001650Y006986D01*
X001650Y006828D02*
X002498Y006828D01*
X001650Y007145D02*
X003988Y007145D01*
X004146Y007303D02*
X001650Y007303D01*
X001650Y007462D02*
X004235Y007462D01*
X004235Y007620D02*
X001650Y007620D01*
X001650Y007779D02*
X004235Y007779D01*
X004235Y007937D02*
X001650Y007937D01*
X001650Y008096D02*
X004235Y008096D01*
X004235Y008254D02*
X001650Y008254D01*
X001650Y008413D02*
X004235Y008413D01*
X004235Y008571D02*
X001650Y008571D01*
X001650Y008730D02*
X004235Y008730D01*
X004130Y008888D02*
X001650Y008888D01*
X001650Y009047D02*
X004130Y009047D01*
X004130Y009205D02*
X001650Y009205D01*
X001650Y009364D02*
X008656Y009364D01*
X008656Y009522D02*
X007445Y009522D01*
X007459Y009205D02*
X008656Y009205D01*
X009096Y009205D02*
X010145Y009205D01*
X010303Y009047D02*
X009096Y009047D01*
X009096Y008888D02*
X010392Y008888D01*
X010392Y008730D02*
X009934Y008730D01*
X010072Y008571D02*
X010392Y008571D01*
X010392Y008413D02*
X010072Y008413D01*
X010072Y008435D02*
X009692Y008435D01*
X009692Y008435D01*
X009692Y008135D01*
X009916Y008135D01*
X009961Y008147D01*
X010002Y008171D01*
X010036Y008204D01*
X010060Y008245D01*
X010072Y008291D01*
X010072Y008435D01*
X010062Y008254D02*
X010283Y008254D01*
X010272Y008096D02*
X008801Y008096D01*
X008960Y008254D02*
X009322Y008254D01*
X009324Y008245D02*
X009348Y008204D01*
X009381Y008171D01*
X009422Y008147D01*
X009468Y008135D01*
X009692Y008135D01*
X009692Y008435D01*
X009692Y008435D01*
X009312Y008435D01*
X009312Y008291D01*
X009324Y008245D01*
X009312Y008413D02*
X009096Y008413D01*
X009096Y008571D02*
X009312Y008571D01*
X009450Y008730D02*
X009096Y008730D01*
X008876Y008482D02*
X008876Y011435D01*
X009467Y012025D01*
X010648Y012025D01*
X010962Y011900D02*
X011920Y011900D01*
X012131Y011900D02*
X020270Y011900D01*
X020270Y012058D02*
X012324Y012058D01*
X011728Y012058D02*
X010986Y012058D01*
X010934Y012217D02*
X011688Y012217D01*
X011562Y012375D02*
X009214Y012375D01*
X009214Y012352D02*
X009214Y012486D01*
X009163Y012610D01*
X009096Y012677D01*
X009096Y012710D01*
X009098Y012710D01*
X009222Y012834D01*
X009289Y012996D01*
X009289Y013771D01*
X009222Y013933D01*
X009098Y014057D01*
X008936Y014124D01*
X008761Y014124D01*
X008599Y014057D01*
X008476Y013933D01*
X008409Y013771D01*
X008409Y013604D01*
X008289Y013604D01*
X008289Y013771D01*
X008222Y013933D01*
X008098Y014057D01*
X007936Y014124D01*
X007761Y014124D01*
X007599Y014057D01*
X007476Y013933D01*
X007409Y013771D01*
X007409Y012996D01*
X007476Y012834D01*
X007599Y012710D01*
X007761Y012644D01*
X007936Y012644D01*
X008098Y012710D01*
X008222Y012834D01*
X008289Y012996D01*
X008289Y013164D01*
X008409Y013164D01*
X008409Y012996D01*
X008476Y012834D01*
X008599Y012710D01*
X008656Y012687D01*
X008656Y012677D01*
X008590Y012610D01*
X008538Y012486D01*
X008538Y012352D01*
X008590Y012227D01*
X008685Y012132D01*
X008809Y012081D01*
X008943Y012081D01*
X009068Y012132D01*
X009163Y012227D01*
X009214Y012352D01*
X009152Y012217D02*
X009347Y012217D01*
X009189Y012058D02*
X004939Y012058D01*
X004939Y011900D02*
X009030Y011900D01*
X008872Y011741D02*
X004939Y011741D01*
X004939Y012217D02*
X008600Y012217D01*
X008538Y012375D02*
X004939Y012375D01*
X004939Y012534D02*
X008558Y012534D01*
X008643Y012692D02*
X008054Y012692D01*
X008229Y012851D02*
X008469Y012851D01*
X008409Y013009D02*
X008289Y013009D01*
X007849Y013384D02*
X008849Y013384D01*
X008876Y013356D01*
X008876Y012419D01*
X009195Y012534D02*
X011403Y012534D01*
X010849Y013006D02*
X010849Y013384D01*
X010409Y013485D02*
X010289Y013485D01*
X010289Y013643D02*
X010409Y013643D01*
X010421Y013802D02*
X010276Y013802D01*
X010194Y013960D02*
X010503Y013960D01*
X009833Y014277D02*
X007109Y014277D01*
X007069Y014119D02*
X007750Y014119D01*
X007948Y014119D02*
X008750Y014119D01*
X008948Y014119D02*
X009674Y014119D01*
X009503Y013960D02*
X009194Y013960D01*
X009276Y013802D02*
X009421Y013802D01*
X009409Y013643D02*
X009289Y013643D01*
X009289Y013485D02*
X009409Y013485D01*
X009409Y013326D02*
X009289Y013326D01*
X009289Y013168D02*
X009409Y013168D01*
X009409Y013009D02*
X009289Y013009D01*
X009229Y012851D02*
X009469Y012851D01*
X009643Y012692D02*
X009096Y012692D01*
X009494Y011741D02*
X010454Y011741D01*
X010842Y011741D02*
X020270Y011741D01*
X020270Y011583D02*
X014585Y011583D01*
X009335Y011583D01*
X009177Y011424D02*
X009719Y011424D01*
X009705Y011266D02*
X009096Y011266D01*
X009096Y011107D02*
X009705Y011107D01*
X009705Y010949D02*
X009096Y010949D01*
X009096Y010790D02*
X009775Y010790D01*
X009837Y010632D02*
X009096Y010632D01*
X009096Y010473D02*
X009837Y010473D01*
X009882Y010315D02*
X009096Y010315D01*
X009096Y010156D02*
X010040Y010156D01*
X010199Y009998D02*
X009096Y009998D01*
X009096Y009839D02*
X009705Y009839D01*
X009705Y009681D02*
X009096Y009681D01*
X009096Y009522D02*
X009705Y009522D01*
X009705Y009364D02*
X009096Y009364D01*
X009692Y008730D02*
X009692Y008730D01*
X009692Y008571D02*
X009692Y008571D01*
X009692Y008413D02*
X009692Y008413D01*
X009692Y008254D02*
X009692Y008254D01*
X009967Y007937D02*
X010272Y007937D01*
X010612Y008065D02*
X010612Y009049D01*
X010061Y009600D01*
X010124Y009663D01*
X010845Y009663D01*
X010451Y010057D02*
X010057Y010450D01*
X010057Y011132D01*
X010061Y011135D01*
X010164Y011238D01*
X011042Y011238D01*
X012388Y009891D01*
X012388Y008498D01*
X012804Y008571D02*
X014585Y008571D01*
X017295Y008571D01*
X017295Y008413D02*
X014585Y008413D01*
X012804Y008413D01*
X012958Y008254D02*
X014585Y008254D01*
X017295Y008254D01*
X017295Y008096D02*
X014585Y008096D01*
X013117Y008096D01*
X013275Y007937D02*
X014585Y007937D01*
X016575Y007937D01*
X016516Y007779D02*
X014585Y007779D01*
X013434Y007779D01*
X013592Y007620D02*
X014585Y007620D01*
X016516Y007620D01*
X016516Y007462D02*
X014585Y007462D01*
X013751Y007462D01*
X013909Y007303D02*
X014585Y007303D01*
X016516Y007303D01*
X016516Y007145D02*
X014585Y007145D01*
X014068Y007145D01*
X014226Y006986D02*
X014585Y006986D01*
X016516Y006986D01*
X016516Y006828D02*
X014585Y006828D01*
X014385Y006828D01*
X014543Y006669D02*
X014585Y006669D01*
X016516Y006669D01*
X016516Y006511D02*
X014702Y006511D01*
X014860Y006352D02*
X016516Y006352D01*
X016516Y006194D02*
X015019Y006194D01*
X015177Y006035D02*
X016516Y006035D01*
X016516Y005877D02*
X015336Y005877D01*
X015494Y005718D02*
X016516Y005718D01*
X016516Y005560D02*
X015653Y005560D01*
X015811Y005401D02*
X016516Y005401D01*
X016516Y005243D02*
X016112Y005243D01*
X016268Y005084D02*
X016516Y005084D01*
X016516Y004926D02*
X016301Y004926D01*
X016258Y004767D02*
X016504Y004767D01*
X016476Y004609D02*
X016050Y004609D01*
X015876Y004609D02*
X014585Y004609D01*
X013099Y004609D01*
X012939Y004645D02*
X012939Y004645D01*
X013427Y004534D02*
X013427Y004534D01*
X013572Y004450D02*
X014585Y004450D01*
X016476Y004450D01*
X015963Y004939D02*
X012778Y008124D01*
X011522Y008124D01*
X012005Y007462D02*
X009977Y007462D01*
X009692Y007695D02*
X012333Y007695D01*
X012388Y007750D01*
X012804Y007779D02*
X012812Y007779D01*
X012804Y007620D02*
X012970Y007620D01*
X013129Y007462D02*
X012771Y007462D01*
X013287Y007303D02*
X004675Y007303D01*
X004675Y007462D02*
X009407Y007462D01*
X008876Y007777D02*
X006901Y007777D01*
X007187Y007777D01*
X007105Y008088D02*
X008483Y008088D01*
X008876Y008482D01*
X008643Y007937D02*
X009416Y007937D01*
X008349Y008832D02*
X007320Y008832D01*
X007219Y008934D01*
X006849Y008934D02*
X006849Y008344D01*
X007105Y008088D01*
X006849Y008226D02*
X006849Y008934D01*
X006479Y008934D02*
X005600Y008934D01*
X005471Y008804D01*
X005146Y008730D02*
X004675Y008730D01*
X004675Y008571D02*
X005170Y008571D01*
X005206Y008413D02*
X004675Y008413D01*
X004675Y008254D02*
X005146Y008254D01*
X005146Y008096D02*
X004675Y008096D01*
X004675Y007937D02*
X005146Y007937D01*
X005471Y008144D02*
X005838Y007777D01*
X006560Y007777D01*
X006560Y007937D01*
X006849Y008226D01*
X006566Y008254D02*
X005796Y008254D01*
X005830Y008096D02*
X006407Y008096D01*
X006469Y008157D02*
X006469Y008157D01*
X006629Y008413D02*
X005735Y008413D01*
X005771Y008571D02*
X006303Y008571D01*
X006239Y009205D02*
X004780Y009205D01*
X004780Y009047D02*
X005180Y009047D01*
X005146Y008888D02*
X004780Y008888D01*
X004455Y009054D02*
X004455Y007301D01*
X004816Y007145D02*
X013446Y007145D01*
X013604Y006986D02*
X009108Y006986D01*
X008803Y006669D02*
X005190Y006669D01*
X005201Y006511D02*
X008961Y006511D01*
X009120Y006352D02*
X005201Y006352D01*
X005201Y006194D02*
X009278Y006194D01*
X006901Y007620D02*
X006901Y007620D01*
X005683Y007620D02*
X004675Y007620D01*
X004675Y007779D02*
X005525Y007779D01*
X004709Y009396D02*
X004750Y009419D01*
X004784Y009453D01*
X004808Y009494D01*
X004820Y009540D01*
X004820Y009714D01*
X004820Y009887D01*
X004808Y009933D01*
X004784Y009974D01*
X004750Y010008D01*
X004709Y010031D01*
X004664Y010044D01*
X004455Y010044D01*
X004455Y009714D01*
X004455Y010044D01*
X004246Y010044D01*
X004200Y010031D01*
X004159Y010008D01*
X004126Y009974D01*
X004102Y009933D01*
X004090Y009887D01*
X004090Y009714D01*
X004455Y009714D01*
X004455Y009714D01*
X004820Y009714D01*
X004455Y009714D01*
X004455Y009714D01*
X004455Y009714D01*
X005389Y010647D01*
X005849Y011107D01*
X005849Y013384D01*
X005869Y013364D02*
X005869Y013404D01*
X005829Y013404D01*
X005829Y014164D01*
X005811Y014164D01*
X005736Y014152D01*
X005664Y014128D01*
X005597Y014094D01*
X005536Y014050D01*
X005483Y013996D01*
X005438Y013935D01*
X005404Y013868D01*
X005380Y013796D01*
X005369Y013721D01*
X005369Y013404D01*
X005829Y013404D01*
X005829Y013364D01*
X005369Y013364D01*
X005369Y013046D01*
X005380Y012971D01*
X005404Y012899D01*
X005438Y012832D01*
X005483Y012771D01*
X005536Y012717D01*
X005597Y012673D01*
X005664Y012639D01*
X005736Y012615D01*
X005811Y012604D01*
X005829Y012604D01*
X005829Y013364D01*
X005869Y013364D01*
X006329Y013364D01*
X006329Y013046D01*
X006317Y012971D01*
X006293Y012899D01*
X006259Y012832D01*
X006215Y012771D01*
X006161Y012717D01*
X006100Y012673D01*
X006033Y012639D01*
X005961Y012615D01*
X005886Y012604D01*
X005869Y012604D01*
X005869Y013364D01*
X005869Y013326D02*
X005829Y013326D01*
X005869Y013404D02*
X006329Y013404D01*
X006329Y013721D01*
X006317Y013796D01*
X006293Y013868D01*
X006259Y013935D01*
X006215Y013996D01*
X006161Y014050D01*
X006100Y014094D01*
X006033Y014128D01*
X005961Y014152D01*
X005886Y014164D01*
X005869Y014164D01*
X005869Y013404D01*
X005869Y013485D02*
X005829Y013485D01*
X005829Y013643D02*
X005869Y013643D01*
X005869Y013802D02*
X005829Y013802D01*
X005829Y013960D02*
X005869Y013960D01*
X005869Y014119D02*
X005829Y014119D01*
X005646Y014119D02*
X004939Y014119D01*
X004939Y014277D02*
X006629Y014277D01*
X006629Y014119D02*
X006052Y014119D01*
X006241Y013960D02*
X006503Y013960D01*
X006421Y013802D02*
X006315Y013802D01*
X006329Y013643D02*
X006409Y013643D01*
X006409Y013485D02*
X006329Y013485D01*
X006329Y013326D02*
X006409Y013326D01*
X006409Y013168D02*
X006329Y013168D01*
X006323Y013009D02*
X006409Y013009D01*
X006469Y012851D02*
X006269Y012851D01*
X006127Y012692D02*
X006643Y012692D01*
X007054Y012692D02*
X007643Y012692D01*
X007469Y012851D02*
X007229Y012851D01*
X007289Y013009D02*
X007409Y013009D01*
X007409Y013168D02*
X007289Y013168D01*
X007289Y013326D02*
X007409Y013326D01*
X007409Y013485D02*
X007289Y013485D01*
X007289Y013643D02*
X007409Y013643D01*
X007421Y013802D02*
X007276Y013802D01*
X007194Y013960D02*
X007503Y013960D01*
X008194Y013960D02*
X008503Y013960D01*
X008421Y013802D02*
X008276Y013802D01*
X008289Y013643D02*
X008409Y013643D01*
X006849Y013384D02*
X006849Y014328D01*
X007105Y014584D01*
X019900Y014584D01*
X024034Y010450D01*
X021868Y009860D02*
X021868Y008340D01*
X021904Y008305D01*
X021510Y008305D02*
X021510Y012384D01*
X021475Y012419D01*
X021081Y012025D02*
X021116Y011990D01*
X021116Y008305D01*
X020270Y008254D02*
X020213Y008254D01*
X020213Y008096D02*
X020270Y008096D01*
X020270Y007937D02*
X020199Y007937D01*
X020270Y007779D02*
X017387Y007779D01*
X017387Y007620D02*
X020270Y007620D01*
X020412Y007462D02*
X017387Y007462D01*
X017387Y007303D02*
X020571Y007303D01*
X020729Y007145D02*
X017387Y007145D01*
X017387Y006986D02*
X023665Y006986D01*
X023665Y006828D02*
X017387Y006828D01*
X017387Y006669D02*
X023665Y006669D01*
X023665Y006511D02*
X017387Y006511D01*
X017387Y006352D02*
X023665Y006352D01*
X023665Y006194D02*
X017387Y006194D01*
X017387Y006035D02*
X023665Y006035D01*
X023665Y005877D02*
X017387Y005877D01*
X017387Y005718D02*
X017644Y005718D01*
X017593Y005560D02*
X017387Y005560D01*
X017387Y005401D02*
X017618Y005401D01*
X017740Y005243D02*
X017761Y005234D01*
X017740Y005225D01*
X017645Y005130D01*
X018019Y004609D02*
X020509Y004609D01*
X021285Y005243D02*
X023665Y005243D01*
X023665Y005401D02*
X021126Y005401D01*
X020968Y005560D02*
X023665Y005560D01*
X023665Y005718D02*
X020809Y005718D01*
X020687Y005529D02*
X017931Y005529D01*
X020687Y005529D02*
X021683Y004534D01*
X024100Y004534D01*
X023665Y004767D02*
X021760Y004767D01*
X021602Y004926D02*
X023665Y004926D01*
X023665Y005084D02*
X021443Y005084D01*
X024100Y006896D02*
X024112Y006907D01*
X024821Y006907D01*
X025018Y007104D01*
X025018Y007498D01*
X020270Y008413D02*
X020213Y008413D01*
X020213Y008571D02*
X020270Y008571D01*
X020270Y008730D02*
X020141Y008730D01*
X020270Y008888D02*
X014585Y008888D01*
X012608Y008888D01*
X012608Y009047D02*
X014585Y009047D01*
X020270Y009047D01*
X020270Y009205D02*
X014585Y009205D01*
X012608Y009205D01*
X012608Y009364D02*
X014585Y009364D01*
X020270Y009364D01*
X020270Y009522D02*
X014585Y009522D01*
X012608Y009522D01*
X012608Y009681D02*
X014585Y009681D01*
X020270Y009681D01*
X020270Y009839D02*
X014585Y009839D01*
X012608Y009839D01*
X012593Y009998D02*
X014585Y009998D01*
X020270Y009998D01*
X020270Y010156D02*
X014585Y010156D01*
X012434Y010156D01*
X012276Y010315D02*
X014585Y010315D01*
X020270Y010315D01*
X020270Y010473D02*
X014585Y010473D01*
X012117Y010473D01*
X011959Y010632D02*
X014585Y010632D01*
X020270Y010632D01*
X020270Y010790D02*
X014585Y010790D01*
X011800Y010790D01*
X011642Y010949D02*
X014585Y010949D01*
X020270Y010949D01*
X020270Y011107D02*
X014585Y011107D01*
X011483Y011107D01*
X011325Y011266D02*
X014585Y011266D01*
X020270Y011266D01*
X020270Y011424D02*
X014585Y011424D01*
X011166Y011424D01*
X011632Y010057D02*
X010451Y010057D01*
X008656Y010315D02*
X007108Y010315D01*
X007108Y010293D02*
X006822Y010293D01*
X006822Y010580D01*
X006822Y010293D01*
X006822Y010293D01*
X006822Y009860D01*
X006849Y009834D01*
X006849Y009833D02*
X006849Y009414D01*
X006849Y009833D01*
X006849Y009833D01*
X006849Y009681D02*
X006849Y009681D01*
X006849Y009522D02*
X006849Y009522D01*
X007219Y009834D02*
X008247Y009834D01*
X008349Y009935D01*
X007923Y010156D02*
X007434Y010156D01*
X007498Y010450D02*
X007301Y010647D01*
X006711Y010647D01*
X006822Y010536D01*
X006822Y010293D01*
X006822Y010293D01*
X007108Y010293D01*
X007094Y010473D02*
X008656Y010473D01*
X008656Y010632D02*
X001650Y010632D01*
X001650Y010790D02*
X008656Y010790D01*
X008656Y010949D02*
X001650Y010949D01*
X001650Y011107D02*
X008656Y011107D01*
X008656Y011266D02*
X003811Y011266D01*
X004085Y011424D02*
X008656Y011424D01*
X008713Y011583D02*
X004293Y011583D01*
X003293Y011137D02*
X003293Y011137D01*
X002794Y011175D02*
X002794Y011175D01*
X002562Y011266D02*
X001650Y011266D01*
X001650Y011424D02*
X002244Y011424D01*
X002328Y011358D02*
X002328Y011358D01*
X002045Y011583D02*
X001650Y011583D01*
X001650Y010473D02*
X005665Y010473D01*
X005585Y010315D02*
X001650Y010315D01*
X001650Y010156D02*
X005598Y010156D01*
X005701Y009998D02*
X004760Y009998D01*
X004820Y009839D02*
X006239Y009839D01*
X006239Y009681D02*
X004820Y009681D01*
X004815Y009522D02*
X006252Y009522D01*
X006479Y009834D02*
X006481Y009836D01*
X006481Y010293D01*
X006442Y010254D01*
X005923Y010254D01*
X006146Y009998D02*
X006239Y009998D01*
X006822Y010315D02*
X006822Y010315D01*
X006822Y010473D02*
X006822Y010473D01*
X006711Y010647D02*
X005389Y010647D01*
X004455Y009998D02*
X004455Y009998D01*
X004455Y009839D02*
X004455Y009839D01*
X004455Y009714D02*
X004090Y009714D01*
X004090Y009540D01*
X004102Y009494D01*
X004126Y009453D01*
X004159Y009419D01*
X004200Y009396D01*
X004246Y009384D01*
X004455Y009384D01*
X004664Y009384D01*
X004709Y009396D01*
X004455Y009384D02*
X004455Y009713D01*
X004455Y009713D01*
X004455Y009384D01*
X004455Y009522D02*
X004455Y009522D01*
X004455Y009681D02*
X004455Y009681D01*
X004090Y009681D02*
X001650Y009681D01*
X001650Y009839D02*
X004090Y009839D01*
X004150Y009998D02*
X001650Y009998D01*
X001650Y009522D02*
X004095Y009522D01*
X004939Y012692D02*
X005571Y012692D01*
X005429Y012851D02*
X004939Y012851D01*
X004939Y013009D02*
X005374Y013009D01*
X005369Y013168D02*
X004939Y013168D01*
X004939Y013326D02*
X005369Y013326D01*
X005369Y013485D02*
X004939Y013485D01*
X004939Y013643D02*
X005369Y013643D01*
X005382Y013802D02*
X004939Y013802D01*
X004939Y013960D02*
X005456Y013960D01*
X004939Y014436D02*
X006645Y014436D01*
X006803Y014594D02*
X004939Y014594D01*
X005829Y013168D02*
X005869Y013168D01*
X005869Y013009D02*
X005829Y013009D01*
X005829Y012851D02*
X005869Y012851D01*
X005869Y012692D02*
X005829Y012692D01*
X012054Y012692D02*
X012643Y012692D01*
X012469Y012851D02*
X012229Y012851D01*
X012289Y013009D02*
X012409Y013009D01*
X012409Y013168D02*
X012289Y013168D01*
X012289Y013326D02*
X012409Y013326D01*
X012409Y013485D02*
X012289Y013485D01*
X012289Y013643D02*
X012409Y013643D01*
X012421Y013802D02*
X012276Y013802D01*
X012194Y013960D02*
X012503Y013960D01*
X013194Y013960D02*
X013503Y013960D01*
X013421Y013802D02*
X013276Y013802D01*
X013289Y013643D02*
X013409Y013643D01*
X013409Y013485D02*
X013289Y013485D01*
X013289Y013326D02*
X013409Y013326D01*
X013409Y013168D02*
X013289Y013168D01*
X013289Y013009D02*
X013409Y013009D01*
X013469Y012851D02*
X013229Y012851D01*
X013054Y012692D02*
X013643Y012692D01*
X014054Y012692D02*
X014571Y012692D01*
X014429Y012851D02*
X014229Y012851D01*
X014289Y013009D02*
X014374Y013009D01*
X014369Y013168D02*
X014289Y013168D01*
X014289Y013326D02*
X014369Y013326D01*
X014369Y013485D02*
X014289Y013485D01*
X014289Y013643D02*
X014369Y013643D01*
X014382Y013802D02*
X014276Y013802D01*
X014194Y013960D02*
X014456Y013960D01*
X015241Y013960D02*
X019819Y013960D01*
X019978Y013802D02*
X015315Y013802D01*
X015329Y013643D02*
X020136Y013643D01*
X020270Y013485D02*
X015329Y013485D01*
X015329Y013326D02*
X020270Y013326D01*
X020270Y013168D02*
X015329Y013168D01*
X015323Y013009D02*
X020270Y013009D01*
X020270Y012851D02*
X015269Y012851D01*
X014585Y008730D02*
X012804Y008730D01*
X014585Y008730D02*
X017367Y008730D01*
X014585Y001280D02*
X005201Y001280D01*
X004510Y001639D02*
X002109Y001639D01*
X002800Y001914D02*
X003819Y001914D01*
X003819Y002073D02*
X002800Y002073D01*
X002738Y002231D02*
X003880Y002231D01*
X003490Y003341D02*
X002527Y003341D01*
X002685Y003499D02*
X003332Y003499D01*
X003266Y003658D02*
X002751Y003658D01*
X002789Y003816D02*
X003229Y003816D01*
X003229Y003975D02*
X002789Y003975D01*
X002741Y004133D02*
X003276Y004133D01*
X003355Y004292D02*
X002662Y004292D01*
X002503Y004450D02*
X003514Y004450D01*
X003856Y005560D02*
X002762Y005560D01*
X002800Y005718D02*
X003819Y005718D01*
X003819Y005877D02*
X002800Y005877D01*
X002800Y006035D02*
X003819Y006035D01*
X001714Y004450D02*
X001650Y004450D01*
X001650Y003341D02*
X001690Y003341D01*
D25*
X007301Y007301D03*
X011042Y006513D03*
X010845Y009663D03*
X011632Y010057D03*
X010648Y012025D03*
X012026Y012222D03*
X008876Y012419D03*
X007498Y010450D03*
X005923Y010254D03*
X015963Y004939D03*
X017931Y004939D03*
X017931Y005529D03*
X021868Y009860D03*
X021081Y012025D03*
X021475Y012419D03*
X025018Y007498D03*
M02*
