G75*
%MOIN*%
%OFA0B0*%
%FSLAX24Y24*%
%IPPOS*%
%LPD*%
%AMOC8*
5,1,8,0,0,1.08239X$1,22.5*
%
%ADD10C,0.0160*%
%ADD11C,0.0000*%
D10*
X001290Y000884D02*
X001290Y015080D01*
X026183Y015080D01*
X026233Y015082D01*
X026282Y015087D01*
X026331Y015097D01*
X026379Y015110D01*
X026426Y015126D01*
X026472Y015146D01*
X026516Y015169D01*
X026558Y015196D01*
X026598Y015225D01*
X026636Y015258D01*
X026671Y015293D01*
X026704Y015331D01*
X026733Y015371D01*
X026760Y015413D01*
X026783Y015457D01*
X026803Y015503D01*
X026819Y015550D01*
X026832Y015598D01*
X026842Y015647D01*
X026847Y015696D01*
X026849Y015746D01*
X026849Y030261D01*
X039849Y030261D01*
X039849Y001572D01*
X039847Y001521D01*
X039841Y001469D01*
X039832Y001419D01*
X039818Y001369D01*
X039801Y001320D01*
X039781Y001273D01*
X039757Y001228D01*
X039729Y001184D01*
X039699Y001142D01*
X039665Y001103D01*
X039629Y001067D01*
X039590Y001033D01*
X039548Y001003D01*
X039505Y000975D01*
X039459Y000951D01*
X039412Y000931D01*
X039363Y000914D01*
X039313Y000900D01*
X039263Y000891D01*
X039211Y000885D01*
X039160Y000883D01*
X039160Y000884D02*
X001290Y000884D01*
D11*
X001709Y003884D02*
X001711Y003924D01*
X001717Y003963D01*
X001727Y004002D01*
X001740Y004039D01*
X001758Y004075D01*
X001779Y004109D01*
X001803Y004141D01*
X001830Y004170D01*
X001860Y004197D01*
X001892Y004220D01*
X001927Y004240D01*
X001963Y004256D01*
X002001Y004269D01*
X002040Y004278D01*
X002079Y004283D01*
X002119Y004284D01*
X002159Y004281D01*
X002198Y004274D01*
X002236Y004263D01*
X002274Y004249D01*
X002309Y004230D01*
X002342Y004209D01*
X002374Y004184D01*
X002402Y004156D01*
X002428Y004126D01*
X002450Y004093D01*
X002469Y004058D01*
X002485Y004021D01*
X002497Y003983D01*
X002505Y003944D01*
X002509Y003904D01*
X002509Y003864D01*
X002505Y003824D01*
X002497Y003785D01*
X002485Y003747D01*
X002469Y003710D01*
X002450Y003675D01*
X002428Y003642D01*
X002402Y003612D01*
X002374Y003584D01*
X002342Y003559D01*
X002309Y003538D01*
X002274Y003519D01*
X002236Y003505D01*
X002198Y003494D01*
X002159Y003487D01*
X002119Y003484D01*
X002079Y003485D01*
X002040Y003490D01*
X002001Y003499D01*
X001963Y003512D01*
X001927Y003528D01*
X001892Y003548D01*
X001860Y003571D01*
X001830Y003598D01*
X001803Y003627D01*
X001779Y003659D01*
X001758Y003693D01*
X001740Y003729D01*
X001727Y003766D01*
X001717Y003805D01*
X001711Y003844D01*
X001709Y003884D01*
X003509Y003884D02*
X003511Y003924D01*
X003517Y003963D01*
X003527Y004002D01*
X003540Y004039D01*
X003558Y004075D01*
X003579Y004109D01*
X003603Y004141D01*
X003630Y004170D01*
X003660Y004197D01*
X003692Y004220D01*
X003727Y004240D01*
X003763Y004256D01*
X003801Y004269D01*
X003840Y004278D01*
X003879Y004283D01*
X003919Y004284D01*
X003959Y004281D01*
X003998Y004274D01*
X004036Y004263D01*
X004074Y004249D01*
X004109Y004230D01*
X004142Y004209D01*
X004174Y004184D01*
X004202Y004156D01*
X004228Y004126D01*
X004250Y004093D01*
X004269Y004058D01*
X004285Y004021D01*
X004297Y003983D01*
X004305Y003944D01*
X004309Y003904D01*
X004309Y003864D01*
X004305Y003824D01*
X004297Y003785D01*
X004285Y003747D01*
X004269Y003710D01*
X004250Y003675D01*
X004228Y003642D01*
X004202Y003612D01*
X004174Y003584D01*
X004142Y003559D01*
X004109Y003538D01*
X004074Y003519D01*
X004036Y003505D01*
X003998Y003494D01*
X003959Y003487D01*
X003919Y003484D01*
X003879Y003485D01*
X003840Y003490D01*
X003801Y003499D01*
X003763Y003512D01*
X003727Y003528D01*
X003692Y003548D01*
X003660Y003571D01*
X003630Y003598D01*
X003603Y003627D01*
X003579Y003659D01*
X003558Y003693D01*
X003540Y003729D01*
X003527Y003766D01*
X003517Y003805D01*
X003511Y003844D01*
X003509Y003884D01*
X012183Y002970D02*
X012185Y003020D01*
X012191Y003070D01*
X012201Y003119D01*
X012215Y003167D01*
X012232Y003214D01*
X012253Y003259D01*
X012278Y003303D01*
X012306Y003344D01*
X012338Y003383D01*
X012372Y003420D01*
X012409Y003454D01*
X012449Y003484D01*
X012491Y003511D01*
X012535Y003535D01*
X012581Y003556D01*
X012628Y003572D01*
X012676Y003585D01*
X012726Y003594D01*
X012775Y003599D01*
X012826Y003600D01*
X012876Y003597D01*
X012925Y003590D01*
X012974Y003579D01*
X013022Y003564D01*
X013068Y003546D01*
X013113Y003524D01*
X013156Y003498D01*
X013197Y003469D01*
X013236Y003437D01*
X013272Y003402D01*
X013304Y003364D01*
X013334Y003324D01*
X013361Y003281D01*
X013384Y003237D01*
X013403Y003191D01*
X013419Y003143D01*
X013431Y003094D01*
X013439Y003045D01*
X013443Y002995D01*
X013443Y002945D01*
X013439Y002895D01*
X013431Y002846D01*
X013419Y002797D01*
X013403Y002749D01*
X013384Y002703D01*
X013361Y002659D01*
X013334Y002616D01*
X013304Y002576D01*
X013272Y002538D01*
X013236Y002503D01*
X013197Y002471D01*
X013156Y002442D01*
X013113Y002416D01*
X013068Y002394D01*
X013022Y002376D01*
X012974Y002361D01*
X012925Y002350D01*
X012876Y002343D01*
X012826Y002340D01*
X012775Y002341D01*
X012726Y002346D01*
X012676Y002355D01*
X012628Y002368D01*
X012581Y002384D01*
X012535Y002405D01*
X012491Y002429D01*
X012449Y002456D01*
X012409Y002486D01*
X012372Y002520D01*
X012338Y002557D01*
X012306Y002596D01*
X012278Y002637D01*
X012253Y002681D01*
X012232Y002726D01*
X012215Y002773D01*
X012201Y002821D01*
X012191Y002870D01*
X012185Y002920D01*
X012183Y002970D01*
X019545Y001478D02*
X019547Y001513D01*
X019553Y001548D01*
X019563Y001582D01*
X019576Y001615D01*
X019593Y001646D01*
X019614Y001674D01*
X019637Y001701D01*
X019664Y001724D01*
X019692Y001745D01*
X019723Y001762D01*
X019756Y001775D01*
X019790Y001785D01*
X019825Y001791D01*
X019860Y001793D01*
X019895Y001791D01*
X019930Y001785D01*
X019964Y001775D01*
X019997Y001762D01*
X020028Y001745D01*
X020056Y001724D01*
X020083Y001701D01*
X020106Y001674D01*
X020127Y001646D01*
X020144Y001615D01*
X020157Y001582D01*
X020167Y001548D01*
X020173Y001513D01*
X020175Y001478D01*
X020173Y001443D01*
X020167Y001408D01*
X020157Y001374D01*
X020144Y001341D01*
X020127Y001310D01*
X020106Y001282D01*
X020083Y001255D01*
X020056Y001232D01*
X020028Y001211D01*
X019997Y001194D01*
X019964Y001181D01*
X019930Y001171D01*
X019895Y001165D01*
X019860Y001163D01*
X019825Y001165D01*
X019790Y001171D01*
X019756Y001181D01*
X019723Y001194D01*
X019692Y001211D01*
X019664Y001232D01*
X019637Y001255D01*
X019614Y001282D01*
X019593Y001310D01*
X019576Y001341D01*
X019563Y001374D01*
X019553Y001408D01*
X019547Y001443D01*
X019545Y001478D01*
X020333Y001478D02*
X020335Y001513D01*
X020341Y001548D01*
X020351Y001582D01*
X020364Y001615D01*
X020381Y001646D01*
X020402Y001674D01*
X020425Y001701D01*
X020452Y001724D01*
X020480Y001745D01*
X020511Y001762D01*
X020544Y001775D01*
X020578Y001785D01*
X020613Y001791D01*
X020648Y001793D01*
X020683Y001791D01*
X020718Y001785D01*
X020752Y001775D01*
X020785Y001762D01*
X020816Y001745D01*
X020844Y001724D01*
X020871Y001701D01*
X020894Y001674D01*
X020915Y001646D01*
X020932Y001615D01*
X020945Y001582D01*
X020955Y001548D01*
X020961Y001513D01*
X020963Y001478D01*
X020961Y001443D01*
X020955Y001408D01*
X020945Y001374D01*
X020932Y001341D01*
X020915Y001310D01*
X020894Y001282D01*
X020871Y001255D01*
X020844Y001232D01*
X020816Y001211D01*
X020785Y001194D01*
X020752Y001181D01*
X020718Y001171D01*
X020683Y001165D01*
X020648Y001163D01*
X020613Y001165D01*
X020578Y001171D01*
X020544Y001181D01*
X020511Y001194D01*
X020480Y001211D01*
X020452Y001232D01*
X020425Y001255D01*
X020402Y001282D01*
X020381Y001310D01*
X020364Y001341D01*
X020351Y001374D01*
X020341Y001408D01*
X020335Y001443D01*
X020333Y001478D01*
X019947Y003478D02*
X019949Y003513D01*
X019955Y003548D01*
X019965Y003582D01*
X019978Y003615D01*
X019995Y003646D01*
X020016Y003674D01*
X020039Y003701D01*
X020066Y003724D01*
X020094Y003745D01*
X020125Y003762D01*
X020158Y003775D01*
X020192Y003785D01*
X020227Y003791D01*
X020262Y003793D01*
X020297Y003791D01*
X020332Y003785D01*
X020366Y003775D01*
X020399Y003762D01*
X020430Y003745D01*
X020458Y003724D01*
X020485Y003701D01*
X020508Y003674D01*
X020529Y003646D01*
X020546Y003615D01*
X020559Y003582D01*
X020569Y003548D01*
X020575Y003513D01*
X020577Y003478D01*
X020575Y003443D01*
X020569Y003408D01*
X020559Y003374D01*
X020546Y003341D01*
X020529Y003310D01*
X020508Y003282D01*
X020485Y003255D01*
X020458Y003232D01*
X020430Y003211D01*
X020399Y003194D01*
X020366Y003181D01*
X020332Y003171D01*
X020297Y003165D01*
X020262Y003163D01*
X020227Y003165D01*
X020192Y003171D01*
X020158Y003181D01*
X020125Y003194D01*
X020094Y003211D01*
X020066Y003232D01*
X020039Y003255D01*
X020016Y003282D01*
X019995Y003310D01*
X019978Y003341D01*
X019965Y003374D01*
X019955Y003408D01*
X019949Y003443D01*
X019947Y003478D01*
X024585Y012813D02*
X024587Y012863D01*
X024593Y012913D01*
X024603Y012962D01*
X024617Y013010D01*
X024634Y013057D01*
X024655Y013102D01*
X024680Y013146D01*
X024708Y013187D01*
X024740Y013226D01*
X024774Y013263D01*
X024811Y013297D01*
X024851Y013327D01*
X024893Y013354D01*
X024937Y013378D01*
X024983Y013399D01*
X025030Y013415D01*
X025078Y013428D01*
X025128Y013437D01*
X025177Y013442D01*
X025228Y013443D01*
X025278Y013440D01*
X025327Y013433D01*
X025376Y013422D01*
X025424Y013407D01*
X025470Y013389D01*
X025515Y013367D01*
X025558Y013341D01*
X025599Y013312D01*
X025638Y013280D01*
X025674Y013245D01*
X025706Y013207D01*
X025736Y013167D01*
X025763Y013124D01*
X025786Y013080D01*
X025805Y013034D01*
X025821Y012986D01*
X025833Y012937D01*
X025841Y012888D01*
X025845Y012838D01*
X025845Y012788D01*
X025841Y012738D01*
X025833Y012689D01*
X025821Y012640D01*
X025805Y012592D01*
X025786Y012546D01*
X025763Y012502D01*
X025736Y012459D01*
X025706Y012419D01*
X025674Y012381D01*
X025638Y012346D01*
X025599Y012314D01*
X025558Y012285D01*
X025515Y012259D01*
X025470Y012237D01*
X025424Y012219D01*
X025376Y012204D01*
X025327Y012193D01*
X025278Y012186D01*
X025228Y012183D01*
X025177Y012184D01*
X025128Y012189D01*
X025078Y012198D01*
X025030Y012211D01*
X024983Y012227D01*
X024937Y012248D01*
X024893Y012272D01*
X024851Y012299D01*
X024811Y012329D01*
X024774Y012363D01*
X024740Y012400D01*
X024708Y012439D01*
X024680Y012480D01*
X024655Y012524D01*
X024634Y012569D01*
X024617Y012616D01*
X024603Y012664D01*
X024593Y012713D01*
X024587Y012763D01*
X024585Y012813D01*
X029686Y014191D02*
X029688Y014241D01*
X029694Y014291D01*
X029704Y014341D01*
X029717Y014389D01*
X029734Y014437D01*
X029755Y014483D01*
X029779Y014527D01*
X029807Y014569D01*
X029838Y014609D01*
X029872Y014646D01*
X029909Y014681D01*
X029948Y014712D01*
X029989Y014741D01*
X030033Y014766D01*
X030079Y014788D01*
X030126Y014806D01*
X030174Y014820D01*
X030223Y014831D01*
X030273Y014838D01*
X030323Y014841D01*
X030374Y014840D01*
X030424Y014835D01*
X030474Y014826D01*
X030522Y014814D01*
X030570Y014797D01*
X030616Y014777D01*
X030661Y014754D01*
X030704Y014727D01*
X030744Y014697D01*
X030782Y014664D01*
X030817Y014628D01*
X030850Y014589D01*
X030879Y014548D01*
X030905Y014505D01*
X030928Y014460D01*
X030947Y014413D01*
X030962Y014365D01*
X030974Y014316D01*
X030982Y014266D01*
X030986Y014216D01*
X030986Y014166D01*
X030982Y014116D01*
X030974Y014066D01*
X030962Y014017D01*
X030947Y013969D01*
X030928Y013922D01*
X030905Y013877D01*
X030879Y013834D01*
X030850Y013793D01*
X030817Y013754D01*
X030782Y013718D01*
X030744Y013685D01*
X030704Y013655D01*
X030661Y013628D01*
X030616Y013605D01*
X030570Y013585D01*
X030522Y013568D01*
X030474Y013556D01*
X030424Y013547D01*
X030374Y013542D01*
X030323Y013541D01*
X030273Y013544D01*
X030223Y013551D01*
X030174Y013562D01*
X030126Y013576D01*
X030079Y013594D01*
X030033Y013616D01*
X029989Y013641D01*
X029948Y013670D01*
X029909Y013701D01*
X029872Y013736D01*
X029838Y013773D01*
X029807Y013813D01*
X029779Y013855D01*
X029755Y013899D01*
X029734Y013945D01*
X029717Y013993D01*
X029704Y014041D01*
X029694Y014091D01*
X029688Y014141D01*
X029686Y014191D01*
X035586Y014191D02*
X035588Y014241D01*
X035594Y014291D01*
X035604Y014341D01*
X035617Y014389D01*
X035634Y014437D01*
X035655Y014483D01*
X035679Y014527D01*
X035707Y014569D01*
X035738Y014609D01*
X035772Y014646D01*
X035809Y014681D01*
X035848Y014712D01*
X035889Y014741D01*
X035933Y014766D01*
X035979Y014788D01*
X036026Y014806D01*
X036074Y014820D01*
X036123Y014831D01*
X036173Y014838D01*
X036223Y014841D01*
X036274Y014840D01*
X036324Y014835D01*
X036374Y014826D01*
X036422Y014814D01*
X036470Y014797D01*
X036516Y014777D01*
X036561Y014754D01*
X036604Y014727D01*
X036644Y014697D01*
X036682Y014664D01*
X036717Y014628D01*
X036750Y014589D01*
X036779Y014548D01*
X036805Y014505D01*
X036828Y014460D01*
X036847Y014413D01*
X036862Y014365D01*
X036874Y014316D01*
X036882Y014266D01*
X036886Y014216D01*
X036886Y014166D01*
X036882Y014116D01*
X036874Y014066D01*
X036862Y014017D01*
X036847Y013969D01*
X036828Y013922D01*
X036805Y013877D01*
X036779Y013834D01*
X036750Y013793D01*
X036717Y013754D01*
X036682Y013718D01*
X036644Y013685D01*
X036604Y013655D01*
X036561Y013628D01*
X036516Y013605D01*
X036470Y013585D01*
X036422Y013568D01*
X036374Y013556D01*
X036324Y013547D01*
X036274Y013542D01*
X036223Y013541D01*
X036173Y013544D01*
X036123Y013551D01*
X036074Y013562D01*
X036026Y013576D01*
X035979Y013594D01*
X035933Y013616D01*
X035889Y013641D01*
X035848Y013670D01*
X035809Y013701D01*
X035772Y013736D01*
X035738Y013773D01*
X035707Y013813D01*
X035679Y013855D01*
X035655Y013899D01*
X035634Y013945D01*
X035617Y013993D01*
X035604Y014041D01*
X035594Y014091D01*
X035588Y014141D01*
X035586Y014191D01*
X036790Y027970D02*
X036792Y028020D01*
X036798Y028070D01*
X036808Y028119D01*
X036822Y028167D01*
X036839Y028214D01*
X036860Y028259D01*
X036885Y028303D01*
X036913Y028344D01*
X036945Y028383D01*
X036979Y028420D01*
X037016Y028454D01*
X037056Y028484D01*
X037098Y028511D01*
X037142Y028535D01*
X037188Y028556D01*
X037235Y028572D01*
X037283Y028585D01*
X037333Y028594D01*
X037382Y028599D01*
X037433Y028600D01*
X037483Y028597D01*
X037532Y028590D01*
X037581Y028579D01*
X037629Y028564D01*
X037675Y028546D01*
X037720Y028524D01*
X037763Y028498D01*
X037804Y028469D01*
X037843Y028437D01*
X037879Y028402D01*
X037911Y028364D01*
X037941Y028324D01*
X037968Y028281D01*
X037991Y028237D01*
X038010Y028191D01*
X038026Y028143D01*
X038038Y028094D01*
X038046Y028045D01*
X038050Y027995D01*
X038050Y027945D01*
X038046Y027895D01*
X038038Y027846D01*
X038026Y027797D01*
X038010Y027749D01*
X037991Y027703D01*
X037968Y027659D01*
X037941Y027616D01*
X037911Y027576D01*
X037879Y027538D01*
X037843Y027503D01*
X037804Y027471D01*
X037763Y027442D01*
X037720Y027416D01*
X037675Y027394D01*
X037629Y027376D01*
X037581Y027361D01*
X037532Y027350D01*
X037483Y027343D01*
X037433Y027340D01*
X037382Y027341D01*
X037333Y027346D01*
X037283Y027355D01*
X037235Y027368D01*
X037188Y027384D01*
X037142Y027405D01*
X037098Y027429D01*
X037056Y027456D01*
X037016Y027486D01*
X036979Y027520D01*
X036945Y027557D01*
X036913Y027596D01*
X036885Y027637D01*
X036860Y027681D01*
X036839Y027726D01*
X036822Y027773D01*
X036808Y027821D01*
X036798Y027870D01*
X036792Y027920D01*
X036790Y027970D01*
X028522Y028167D02*
X028524Y028217D01*
X028530Y028267D01*
X028540Y028316D01*
X028554Y028364D01*
X028571Y028411D01*
X028592Y028456D01*
X028617Y028500D01*
X028645Y028541D01*
X028677Y028580D01*
X028711Y028617D01*
X028748Y028651D01*
X028788Y028681D01*
X028830Y028708D01*
X028874Y028732D01*
X028920Y028753D01*
X028967Y028769D01*
X029015Y028782D01*
X029065Y028791D01*
X029114Y028796D01*
X029165Y028797D01*
X029215Y028794D01*
X029264Y028787D01*
X029313Y028776D01*
X029361Y028761D01*
X029407Y028743D01*
X029452Y028721D01*
X029495Y028695D01*
X029536Y028666D01*
X029575Y028634D01*
X029611Y028599D01*
X029643Y028561D01*
X029673Y028521D01*
X029700Y028478D01*
X029723Y028434D01*
X029742Y028388D01*
X029758Y028340D01*
X029770Y028291D01*
X029778Y028242D01*
X029782Y028192D01*
X029782Y028142D01*
X029778Y028092D01*
X029770Y028043D01*
X029758Y027994D01*
X029742Y027946D01*
X029723Y027900D01*
X029700Y027856D01*
X029673Y027813D01*
X029643Y027773D01*
X029611Y027735D01*
X029575Y027700D01*
X029536Y027668D01*
X029495Y027639D01*
X029452Y027613D01*
X029407Y027591D01*
X029361Y027573D01*
X029313Y027558D01*
X029264Y027547D01*
X029215Y027540D01*
X029165Y027537D01*
X029114Y027538D01*
X029065Y027543D01*
X029015Y027552D01*
X028967Y027565D01*
X028920Y027581D01*
X028874Y027602D01*
X028830Y027626D01*
X028788Y027653D01*
X028748Y027683D01*
X028711Y027717D01*
X028677Y027754D01*
X028645Y027793D01*
X028617Y027834D01*
X028592Y027878D01*
X028571Y027923D01*
X028554Y027970D01*
X028540Y028018D01*
X028530Y028067D01*
X028524Y028117D01*
X028522Y028167D01*
X002538Y012813D02*
X002540Y012863D01*
X002546Y012913D01*
X002556Y012962D01*
X002570Y013010D01*
X002587Y013057D01*
X002608Y013102D01*
X002633Y013146D01*
X002661Y013187D01*
X002693Y013226D01*
X002727Y013263D01*
X002764Y013297D01*
X002804Y013327D01*
X002846Y013354D01*
X002890Y013378D01*
X002936Y013399D01*
X002983Y013415D01*
X003031Y013428D01*
X003081Y013437D01*
X003130Y013442D01*
X003181Y013443D01*
X003231Y013440D01*
X003280Y013433D01*
X003329Y013422D01*
X003377Y013407D01*
X003423Y013389D01*
X003468Y013367D01*
X003511Y013341D01*
X003552Y013312D01*
X003591Y013280D01*
X003627Y013245D01*
X003659Y013207D01*
X003689Y013167D01*
X003716Y013124D01*
X003739Y013080D01*
X003758Y013034D01*
X003774Y012986D01*
X003786Y012937D01*
X003794Y012888D01*
X003798Y012838D01*
X003798Y012788D01*
X003794Y012738D01*
X003786Y012689D01*
X003774Y012640D01*
X003758Y012592D01*
X003739Y012546D01*
X003716Y012502D01*
X003689Y012459D01*
X003659Y012419D01*
X003627Y012381D01*
X003591Y012346D01*
X003552Y012314D01*
X003511Y012285D01*
X003468Y012259D01*
X003423Y012237D01*
X003377Y012219D01*
X003329Y012204D01*
X003280Y012193D01*
X003231Y012186D01*
X003181Y012183D01*
X003130Y012184D01*
X003081Y012189D01*
X003031Y012198D01*
X002983Y012211D01*
X002936Y012227D01*
X002890Y012248D01*
X002846Y012272D01*
X002804Y012299D01*
X002764Y012329D01*
X002727Y012363D01*
X002693Y012400D01*
X002661Y012439D01*
X002633Y012480D01*
X002608Y012524D01*
X002587Y012569D01*
X002570Y012616D01*
X002556Y012664D01*
X002546Y012713D01*
X002540Y012763D01*
X002538Y012813D01*
M02*
