G75*
%MOIN*%
%OFA0B0*%
%FSLAX24Y24*%
%IPPOS*%
%LPD*%
%AMOC8*
5,1,8,0,0,1.08239X$1,22.5*
%
%ADD10R,0.0336X0.0651*%
%ADD11R,0.0651X0.0357*%
%ADD12R,0.0651X0.0336*%
%ADD13C,0.0690*%
%ADD14C,0.0660*%
%ADD15R,0.0260X0.0540*%
%ADD16R,0.0271X0.0275*%
%ADD17R,0.0472X0.0472*%
%ADD18R,0.0611X0.0454*%
%ADD19R,0.0460X0.0300*%
%ADD20R,0.1162X0.1005*%
%ADD21C,0.0860*%
%ADD22R,0.0631X0.0414*%
%ADD23R,0.0430X0.0360*%
%ADD24C,0.1320*%
%ADD25R,0.0660X0.0660*%
%ADD26C,0.1360*%
D10*
X017573Y008305D03*
X017967Y008305D03*
X018360Y008305D03*
X018754Y008305D03*
X019148Y008305D03*
X019542Y008305D03*
X019935Y008305D03*
X021116Y008305D03*
X021510Y008305D03*
X021904Y008305D03*
X022297Y008305D03*
X022691Y008305D03*
X023085Y008305D03*
X023479Y008305D03*
D11*
X024100Y007683D03*
D12*
X024100Y007289D03*
X024100Y006896D03*
X024100Y006502D03*
X024100Y006108D03*
X024100Y005715D03*
X024100Y005321D03*
X024100Y004927D03*
X024100Y004534D03*
X016951Y004534D03*
X016951Y004927D03*
X016951Y005321D03*
X016951Y005715D03*
X016951Y006108D03*
X016951Y006502D03*
X016951Y006896D03*
X016951Y007289D03*
X016951Y007683D03*
D13*
X020262Y003478D03*
X020648Y001478D03*
X019860Y001478D03*
D14*
X014849Y013084D02*
X014849Y013684D01*
X013849Y013684D02*
X013849Y013084D01*
X012849Y013084D02*
X012849Y013684D01*
X011849Y013684D02*
X011849Y013084D01*
X010849Y013084D02*
X010849Y013684D01*
X009849Y013684D02*
X009849Y013084D01*
X008849Y013084D02*
X008849Y013684D01*
X007849Y013684D02*
X007849Y013084D01*
X006849Y013084D02*
X006849Y013684D01*
X005849Y013684D02*
X005849Y013084D01*
D15*
X006479Y009834D03*
X006849Y009834D03*
X007219Y009834D03*
X007219Y008934D03*
X006849Y008934D03*
X006479Y008934D03*
D16*
X006560Y007777D03*
X006901Y007777D03*
X006822Y010293D03*
X006481Y010293D03*
D17*
X010061Y009600D03*
X010061Y011135D03*
D18*
X012388Y008498D03*
X012388Y007750D03*
X011522Y008124D03*
D19*
X010612Y008065D03*
X009692Y008435D03*
X009692Y007695D03*
D20*
X002109Y001639D03*
X004510Y001639D03*
X004510Y006128D03*
X002109Y006128D03*
D21*
X002109Y003884D03*
X003909Y003884D03*
D22*
X008349Y008832D03*
X008349Y009935D03*
D23*
X005471Y008804D03*
X005471Y008144D03*
X004455Y009054D03*
X004455Y009714D03*
D24*
X003168Y012813D03*
X012813Y002970D03*
X025215Y012813D03*
X037420Y027970D03*
X029152Y028167D03*
D25*
X030336Y003491D03*
X036236Y003491D03*
D26*
X036236Y014191D03*
X030336Y014191D03*
M02*
