%
M48
M72
T01C0.0236
T02C0.0400
T03C0.0630
T04C0.0800
T05C0.1260
T06C0.1300
%
T01
X7301Y7301
X11042Y6513
X10845Y9663
X11632Y10057
X10648Y12025
X12026Y12222
X8876Y12419
X7498Y10450
X5923Y10254
X15963Y4939
X17931Y4939
X17931Y5529
X21868Y9860
X21081Y12025
X21475Y12419
X25018Y7498
T02
X30336Y3491
X36236Y3491
X14849Y13384
X13849Y13384
X12849Y13384
X11849Y13384
X10849Y13384
X9849Y13384
X8849Y13384
X7849Y13384
X6849Y13384
X5849Y13384
T03
X20262Y3478
X20648Y1478
X19860Y1478
T04
X2109Y3884
X3909Y3884
T05
X12813Y2970
X3168Y12813
X25215Y12813
X37420Y27970
X29152Y28167
T06
X30336Y14191
X36236Y14191
M30
