G75*
%MOIN*%
%OFA0B0*%
%FSLAX24Y24*%
%IPPOS*%
%LPD*%
%AMOC8*
5,1,8,0,0,1.08239X$1,22.5*
%
%ADD10C,0.0600*%
%ADD11R,0.0600X0.0600*%
%ADD12C,0.0160*%
%ADD13C,0.0396*%
D10*
X005849Y013084D02*
X005849Y013684D01*
X006849Y013684D02*
X006849Y013084D01*
X007849Y013084D02*
X007849Y013684D01*
X008849Y013684D02*
X008849Y013084D01*
X009849Y013084D02*
X009849Y013684D01*
X010849Y013684D02*
X010849Y013084D01*
X011849Y013084D02*
X011849Y013684D01*
X012849Y013684D02*
X012849Y013084D01*
X013849Y013084D02*
X013849Y013684D01*
X014849Y013684D02*
X014849Y013084D01*
D11*
X030336Y003491D03*
X036236Y003491D03*
D12*
X001650Y003381D02*
X001650Y001244D01*
X014585Y001244D01*
X014585Y006596D01*
X015872Y005309D01*
X017673Y005309D01*
X017740Y005243D01*
X016112Y005243D01*
X016154Y005225D02*
X016030Y005277D01*
X015896Y005277D01*
X015771Y005225D01*
X015676Y005130D01*
X015625Y005006D01*
X015625Y004871D01*
X015676Y004747D01*
X015771Y004652D01*
X015896Y004601D01*
X016030Y004601D01*
X016154Y004652D01*
X016221Y004719D01*
X017673Y004719D01*
X017740Y004652D01*
X017864Y004601D01*
X017999Y004601D01*
X018123Y004652D01*
X018218Y004747D01*
X018269Y004871D01*
X018269Y005006D01*
X018218Y005130D01*
X018123Y005225D01*
X018102Y005234D01*
X018123Y005243D01*
X025412Y005243D01*
X025412Y005401D02*
X018244Y005401D01*
X018269Y005462D02*
X018269Y005596D01*
X018218Y005721D01*
X018123Y005816D01*
X017999Y005867D01*
X017864Y005867D01*
X017740Y005816D01*
X017673Y005749D01*
X016054Y005749D01*
X014585Y007218D01*
X014585Y011018D01*
X020399Y011018D01*
X021530Y009887D01*
X021530Y009793D01*
X021582Y009668D01*
X021677Y009573D01*
X021801Y009522D01*
X021936Y009522D01*
X022060Y009573D01*
X022155Y009668D01*
X022206Y009793D01*
X022206Y009927D01*
X022156Y010048D01*
X024680Y007525D01*
X024680Y007430D01*
X024731Y007306D01*
X024826Y007211D01*
X024951Y007160D01*
X025085Y007160D01*
X025209Y007211D01*
X025305Y007306D01*
X025356Y007430D01*
X025356Y007565D01*
X025305Y007689D01*
X025209Y007784D01*
X025085Y007836D01*
X024991Y007836D01*
X021140Y011687D01*
X021148Y011687D01*
X021272Y011739D01*
X021368Y011834D01*
X021419Y011958D01*
X021419Y012081D01*
X021542Y012081D01*
X021666Y012132D01*
X021761Y012227D01*
X021813Y012352D01*
X021813Y012486D01*
X021761Y012610D01*
X021695Y012677D01*
X021695Y013494D01*
X021566Y013623D01*
X020582Y014607D01*
X011935Y014607D01*
X011806Y014479D01*
X011629Y014301D01*
X011629Y014069D01*
X011599Y014057D01*
X011476Y013933D01*
X011409Y013771D01*
X011409Y012996D01*
X011476Y012834D01*
X011599Y012710D01*
X011761Y012644D01*
X011936Y012644D01*
X012098Y012710D01*
X012222Y012834D01*
X012289Y012996D01*
X012289Y013771D01*
X012222Y013933D01*
X012098Y014057D01*
X012069Y014069D01*
X012069Y014119D01*
X012117Y014167D01*
X020399Y014167D01*
X021255Y013312D01*
X021255Y012677D01*
X021188Y012610D01*
X021137Y012486D01*
X021137Y012363D01*
X021054Y012363D01*
X020778Y012639D01*
X015033Y012639D01*
X015100Y012673D01*
X015161Y012717D01*
X015215Y012771D01*
X015259Y012832D01*
X015293Y012899D01*
X015317Y012971D01*
X015329Y013046D01*
X015329Y013364D01*
X014869Y013364D01*
X014869Y013404D01*
X014829Y013404D01*
X014829Y014164D01*
X014811Y014164D01*
X014736Y014152D01*
X014664Y014128D01*
X014597Y014094D01*
X014536Y014050D01*
X014483Y013996D01*
X014438Y013935D01*
X014404Y013868D01*
X014380Y013796D01*
X014369Y013721D01*
X014369Y013404D01*
X014829Y013404D01*
X014829Y013364D01*
X014369Y013364D01*
X014369Y013046D01*
X014380Y012971D01*
X014404Y012899D01*
X014438Y012832D01*
X014483Y012771D01*
X014536Y012717D01*
X014597Y012673D01*
X014664Y012639D01*
X014085Y012639D01*
X014069Y012656D01*
X014069Y012698D01*
X014098Y012710D01*
X014222Y012834D01*
X014289Y012996D01*
X014289Y013771D01*
X014222Y013933D01*
X014098Y014057D01*
X013936Y014124D01*
X013761Y014124D01*
X013599Y014057D01*
X013476Y013933D01*
X013409Y013771D01*
X013409Y012996D01*
X013476Y012834D01*
X013599Y012710D01*
X013629Y012698D01*
X013629Y012473D01*
X013774Y012328D01*
X013857Y012245D01*
X013101Y012245D01*
X013069Y012278D01*
X013069Y012698D01*
X013098Y012710D01*
X013222Y012834D01*
X013289Y012996D01*
X013289Y013771D01*
X013222Y013933D01*
X013098Y014057D01*
X012936Y014124D01*
X012761Y014124D01*
X012599Y014057D01*
X012476Y013933D01*
X012409Y013771D01*
X012409Y012996D01*
X012476Y012834D01*
X012599Y012710D01*
X012629Y012698D01*
X012629Y012096D01*
X012790Y011934D01*
X012919Y011805D01*
X020399Y011805D01*
X022057Y010148D01*
X021936Y010198D01*
X021841Y010198D01*
X020582Y011458D01*
X014585Y011458D01*
X014585Y011632D01*
X012928Y011632D01*
X012364Y012195D01*
X012364Y012289D01*
X012312Y012414D01*
X012217Y012509D01*
X012093Y012560D01*
X011959Y012560D01*
X011834Y012509D01*
X011739Y012414D01*
X011688Y012289D01*
X011688Y012281D01*
X011458Y012510D01*
X011330Y012639D01*
X009134Y012639D01*
X009073Y012700D01*
X009098Y012710D01*
X009222Y012834D01*
X009289Y012996D01*
X009289Y013771D01*
X009222Y013933D01*
X009098Y014057D01*
X008936Y014124D01*
X008761Y014124D01*
X008599Y014057D01*
X008476Y013933D01*
X008409Y013771D01*
X008409Y012996D01*
X008476Y012834D01*
X008599Y012710D01*
X008663Y012684D01*
X008590Y012610D01*
X008538Y012486D01*
X008538Y012442D01*
X005832Y012442D01*
X005703Y012313D01*
X005310Y011920D01*
X005310Y011632D01*
X004939Y011632D01*
X004939Y014720D01*
X025412Y014720D01*
X025412Y014472D01*
X025340Y014488D01*
X024841Y014451D01*
X024375Y014268D01*
X024375Y014268D01*
X023983Y013955D01*
X023701Y013542D01*
X023701Y013542D01*
X023554Y013063D01*
X023554Y012562D01*
X023701Y012084D01*
X023701Y012084D01*
X023983Y011670D01*
X023983Y011670D01*
X023983Y011670D01*
X024375Y011358D01*
X024841Y011175D01*
X025340Y011137D01*
X025340Y011137D01*
X025412Y011154D01*
X025412Y004151D01*
X014585Y004151D01*
X014585Y006596D01*
X012328Y008852D01*
X012200Y008981D01*
X012200Y010313D01*
X011970Y010084D01*
X011970Y009989D01*
X011919Y009865D01*
X011824Y009770D01*
X011699Y009719D01*
X011565Y009719D01*
X011441Y009770D01*
X011345Y009865D01*
X011294Y009989D01*
X011294Y010124D01*
X011345Y010248D01*
X011441Y010343D01*
X011565Y010395D01*
X011659Y010395D01*
X011806Y010542D01*
X011806Y010950D01*
X011124Y011632D01*
X005750Y011632D01*
X005750Y010738D01*
X005896Y010592D01*
X005991Y010592D01*
X006115Y010540D01*
X006210Y010445D01*
X006262Y010321D01*
X006262Y010186D01*
X006210Y010062D01*
X006115Y009967D01*
X005991Y009915D01*
X005856Y009915D01*
X005732Y009967D01*
X005637Y010062D01*
X005585Y010186D01*
X005585Y010281D01*
X005439Y010427D01*
X005310Y010556D01*
X005310Y011632D01*
X004338Y011632D01*
X004215Y011499D01*
X004215Y011499D01*
X003781Y011249D01*
X003781Y011249D01*
X003293Y011137D01*
X003293Y011137D01*
X002794Y011175D01*
X002794Y011175D01*
X002328Y011358D01*
X002328Y011358D01*
X001984Y011632D01*
X001650Y011632D01*
X001650Y004386D01*
X001723Y004460D01*
X001973Y004564D01*
X002244Y004564D01*
X002494Y004460D01*
X002685Y004269D01*
X002789Y004019D01*
X002789Y003748D01*
X002685Y003498D01*
X002494Y003307D01*
X002244Y003204D01*
X001973Y003204D01*
X001723Y003307D01*
X001650Y003381D01*
X001650Y003341D02*
X001690Y003341D01*
X001650Y003182D02*
X011152Y003182D01*
X011152Y003221D02*
X011152Y002720D01*
X011300Y002241D01*
X011582Y001827D01*
X011973Y001515D01*
X012439Y001332D01*
X012939Y001295D01*
X013427Y001406D01*
X013861Y001657D01*
X014201Y002024D01*
X014419Y002475D01*
X014493Y002970D01*
X014419Y003465D01*
X014419Y003465D01*
X014201Y003917D01*
X013861Y004284D01*
X013861Y004284D01*
X013427Y004534D01*
X012939Y004645D01*
X012439Y004608D01*
X011973Y004425D01*
X011582Y004113D01*
X011582Y004113D01*
X011300Y003699D01*
X011152Y003221D01*
X011189Y003341D02*
X004327Y003341D01*
X004294Y003307D02*
X004485Y003498D01*
X004589Y003748D01*
X004589Y004019D01*
X004485Y004269D01*
X004294Y004460D01*
X004044Y004564D01*
X003773Y004564D01*
X003523Y004460D01*
X003332Y004269D01*
X003229Y004019D01*
X003229Y003748D01*
X003332Y003498D01*
X003523Y003307D01*
X003773Y003204D01*
X004044Y003204D01*
X004294Y003307D01*
X004485Y003499D02*
X011238Y003499D01*
X011287Y003658D02*
X004551Y003658D01*
X004589Y003816D02*
X011380Y003816D01*
X011300Y003699D02*
X011300Y003699D01*
X011488Y003975D02*
X004589Y003975D01*
X004541Y004133D02*
X011607Y004133D01*
X011806Y004292D02*
X004462Y004292D01*
X004303Y004450D02*
X012038Y004450D01*
X011973Y004425D02*
X011973Y004425D01*
X012439Y004608D02*
X012439Y004608D01*
X012450Y004609D02*
X001650Y004609D01*
X001650Y004767D02*
X014585Y004767D01*
X015668Y004767D01*
X015625Y004926D02*
X014585Y004926D01*
X001650Y004926D01*
X001650Y005084D02*
X014585Y005084D01*
X015657Y005084D01*
X015814Y005243D02*
X014585Y005243D01*
X001650Y005243D01*
X001650Y005401D02*
X014585Y005401D01*
X015780Y005401D01*
X015963Y005529D02*
X012420Y009072D01*
X012420Y011238D01*
X011238Y012419D01*
X008876Y012419D01*
X008679Y012222D01*
X005923Y012222D01*
X005530Y011828D01*
X005530Y010647D01*
X005923Y010254D01*
X005701Y009998D02*
X001650Y009998D01*
X001650Y010156D02*
X005598Y010156D01*
X005551Y010315D02*
X001650Y010315D01*
X001650Y010473D02*
X005393Y010473D01*
X005310Y010632D02*
X001650Y010632D01*
X001650Y010790D02*
X005310Y010790D01*
X005310Y010949D02*
X001650Y010949D01*
X001650Y011107D02*
X005310Y011107D01*
X005310Y011266D02*
X003811Y011266D01*
X004085Y011424D02*
X005310Y011424D01*
X005310Y011583D02*
X004293Y011583D01*
X004215Y011499D02*
X004215Y011499D01*
X004939Y011741D02*
X005310Y011741D01*
X005310Y011900D02*
X004939Y011900D01*
X004939Y012058D02*
X005449Y012058D01*
X005607Y012217D02*
X004939Y012217D01*
X004939Y012375D02*
X005766Y012375D01*
X005811Y012604D02*
X005829Y012604D01*
X005829Y013364D01*
X005369Y013364D01*
X005369Y013046D01*
X005380Y012971D01*
X005404Y012899D01*
X005438Y012832D01*
X005483Y012771D01*
X005536Y012717D01*
X005597Y012673D01*
X005664Y012639D01*
X005736Y012615D01*
X005811Y012604D01*
X005869Y012604D02*
X005886Y012604D01*
X005961Y012615D01*
X006033Y012639D01*
X006100Y012673D01*
X006161Y012717D01*
X006215Y012771D01*
X006259Y012832D01*
X006293Y012899D01*
X006317Y012971D01*
X006329Y013046D01*
X006329Y013364D01*
X005869Y013364D01*
X005869Y013404D01*
X005829Y013404D01*
X005829Y014164D01*
X005811Y014164D01*
X005736Y014152D01*
X005664Y014128D01*
X005597Y014094D01*
X005536Y014050D01*
X005483Y013996D01*
X005438Y013935D01*
X005404Y013868D01*
X005380Y013796D01*
X005369Y013721D01*
X005369Y013404D01*
X005829Y013404D01*
X005829Y013364D01*
X005869Y013364D01*
X005869Y012604D01*
X005869Y012692D02*
X005829Y012692D01*
X005829Y012851D02*
X005869Y012851D01*
X005869Y013009D02*
X005829Y013009D01*
X005829Y013168D02*
X005869Y013168D01*
X005869Y013326D02*
X005829Y013326D01*
X005869Y013404D02*
X006329Y013404D01*
X006329Y013721D01*
X006317Y013796D01*
X006293Y013868D01*
X006259Y013935D01*
X006215Y013996D01*
X006161Y014050D01*
X006100Y014094D01*
X006033Y014128D01*
X005961Y014152D01*
X005886Y014164D01*
X005869Y014164D01*
X005869Y013404D01*
X005869Y013485D02*
X005829Y013485D01*
X005829Y013643D02*
X005869Y013643D01*
X005869Y013802D02*
X005829Y013802D01*
X005829Y013960D02*
X005869Y013960D01*
X005869Y014119D02*
X005829Y014119D01*
X005646Y014119D02*
X004939Y014119D01*
X004939Y014277D02*
X011629Y014277D01*
X011629Y014119D02*
X010948Y014119D01*
X010936Y014124D02*
X010761Y014124D01*
X010599Y014057D01*
X010476Y013933D01*
X010409Y013771D01*
X010409Y012996D01*
X010476Y012834D01*
X010599Y012710D01*
X010761Y012644D01*
X010936Y012644D01*
X011098Y012710D01*
X011222Y012834D01*
X011289Y012996D01*
X011289Y013771D01*
X011222Y013933D01*
X011098Y014057D01*
X010936Y014124D01*
X010750Y014119D02*
X009948Y014119D01*
X009936Y014124D02*
X009761Y014124D01*
X009599Y014057D01*
X009476Y013933D01*
X009409Y013771D01*
X009409Y012996D01*
X009476Y012834D01*
X009599Y012710D01*
X009761Y012644D01*
X009936Y012644D01*
X010098Y012710D01*
X010222Y012834D01*
X010289Y012996D01*
X010289Y013771D01*
X010222Y013933D01*
X010098Y014057D01*
X009936Y014124D01*
X009750Y014119D02*
X008948Y014119D01*
X008750Y014119D02*
X007948Y014119D01*
X007936Y014124D02*
X007761Y014124D01*
X007599Y014057D01*
X007476Y013933D01*
X007409Y013771D01*
X007409Y012996D01*
X007476Y012834D01*
X007599Y012710D01*
X007761Y012644D01*
X007936Y012644D01*
X008098Y012710D01*
X008222Y012834D01*
X008289Y012996D01*
X008289Y013771D01*
X008222Y013933D01*
X008098Y014057D01*
X007936Y014124D01*
X007750Y014119D02*
X006948Y014119D01*
X006936Y014124D02*
X006761Y014124D01*
X006599Y014057D01*
X006476Y013933D01*
X006409Y013771D01*
X006409Y012996D01*
X006476Y012834D01*
X006599Y012710D01*
X006761Y012644D01*
X006936Y012644D01*
X007098Y012710D01*
X007222Y012834D01*
X007289Y012996D01*
X007289Y013771D01*
X007222Y013933D01*
X007098Y014057D01*
X006936Y014124D01*
X006750Y014119D02*
X006052Y014119D01*
X006241Y013960D02*
X006503Y013960D01*
X006421Y013802D02*
X006315Y013802D01*
X006329Y013643D02*
X006409Y013643D01*
X006409Y013485D02*
X006329Y013485D01*
X006329Y013326D02*
X006409Y013326D01*
X006409Y013168D02*
X006329Y013168D01*
X006323Y013009D02*
X006409Y013009D01*
X006469Y012851D02*
X006269Y012851D01*
X006127Y012692D02*
X006643Y012692D01*
X007054Y012692D02*
X007643Y012692D01*
X007469Y012851D02*
X007229Y012851D01*
X007289Y013009D02*
X007409Y013009D01*
X007409Y013168D02*
X007289Y013168D01*
X007289Y013326D02*
X007409Y013326D01*
X007409Y013485D02*
X007289Y013485D01*
X007289Y013643D02*
X007409Y013643D01*
X007421Y013802D02*
X007276Y013802D01*
X007194Y013960D02*
X007503Y013960D01*
X008194Y013960D02*
X008503Y013960D01*
X008421Y013802D02*
X008276Y013802D01*
X008289Y013643D02*
X008409Y013643D01*
X008409Y013485D02*
X008289Y013485D01*
X008289Y013326D02*
X008409Y013326D01*
X008409Y013168D02*
X008289Y013168D01*
X008289Y013009D02*
X008409Y013009D01*
X008469Y012851D02*
X008229Y012851D01*
X008054Y012692D02*
X008643Y012692D01*
X008558Y012534D02*
X004939Y012534D01*
X004939Y012692D02*
X005571Y012692D01*
X005429Y012851D02*
X004939Y012851D01*
X004939Y013009D02*
X005374Y013009D01*
X005369Y013168D02*
X004939Y013168D01*
X004939Y013326D02*
X005369Y013326D01*
X005369Y013485D02*
X004939Y013485D01*
X004939Y013643D02*
X005369Y013643D01*
X005382Y013802D02*
X004939Y013802D01*
X004939Y013960D02*
X005456Y013960D01*
X004939Y014436D02*
X011763Y014436D01*
X011922Y014594D02*
X004939Y014594D01*
X005750Y011583D02*
X011173Y011583D01*
X011331Y011424D02*
X005750Y011424D01*
X005750Y011266D02*
X011490Y011266D01*
X011648Y011107D02*
X005750Y011107D01*
X005750Y010949D02*
X011806Y010949D01*
X011806Y010790D02*
X005750Y010790D01*
X005856Y010632D02*
X011806Y010632D01*
X011738Y010473D02*
X006182Y010473D01*
X006262Y010315D02*
X011412Y010315D01*
X011307Y010156D02*
X006249Y010156D01*
X006146Y009998D02*
X010769Y009998D01*
X010777Y010001D02*
X010653Y009950D01*
X010558Y009855D01*
X010507Y009730D01*
X010507Y009596D01*
X010558Y009472D01*
X010653Y009376D01*
X010777Y009325D01*
X010822Y009325D01*
X010822Y006772D01*
X010755Y006705D01*
X010703Y006581D01*
X010703Y006446D01*
X010755Y006322D01*
X010850Y006227D01*
X010974Y006175D01*
X011109Y006175D01*
X011233Y006227D01*
X011328Y006322D01*
X011380Y006446D01*
X011380Y006581D01*
X011328Y006705D01*
X011262Y006772D01*
X011262Y009557D01*
X011183Y009636D01*
X011183Y009730D01*
X011131Y009855D01*
X011036Y009950D01*
X010912Y010001D01*
X010777Y010001D01*
X010920Y009998D02*
X011294Y009998D01*
X011371Y009839D02*
X011138Y009839D01*
X011183Y009681D02*
X012200Y009681D01*
X012200Y009839D02*
X011893Y009839D01*
X011970Y009998D02*
X012200Y009998D01*
X012200Y010156D02*
X012043Y010156D01*
X012026Y010450D02*
X011632Y010057D01*
X012026Y010450D02*
X012026Y011041D01*
X011042Y012025D01*
X010648Y012025D01*
X010643Y012692D02*
X010054Y012692D01*
X010229Y012851D02*
X010469Y012851D01*
X010409Y013009D02*
X010289Y013009D01*
X010289Y013168D02*
X010409Y013168D01*
X010409Y013326D02*
X010289Y013326D01*
X010289Y013485D02*
X010409Y013485D01*
X010409Y013643D02*
X010289Y013643D01*
X010276Y013802D02*
X010421Y013802D01*
X010503Y013960D02*
X010194Y013960D01*
X009503Y013960D02*
X009194Y013960D01*
X009276Y013802D02*
X009421Y013802D01*
X009409Y013643D02*
X009289Y013643D01*
X009289Y013485D02*
X009409Y013485D01*
X009409Y013326D02*
X009289Y013326D01*
X009289Y013168D02*
X009409Y013168D01*
X009409Y013009D02*
X009289Y013009D01*
X009229Y012851D02*
X009469Y012851D01*
X009643Y012692D02*
X009081Y012692D01*
X011054Y012692D02*
X011643Y012692D01*
X011469Y012851D02*
X011229Y012851D01*
X011289Y013009D02*
X011409Y013009D01*
X011409Y013168D02*
X011289Y013168D01*
X011289Y013326D02*
X011409Y013326D01*
X011409Y013485D02*
X011289Y013485D01*
X011289Y013643D02*
X011409Y013643D01*
X011421Y013802D02*
X011276Y013802D01*
X011194Y013960D02*
X011503Y013960D01*
X011849Y014210D02*
X012026Y014387D01*
X020490Y014387D01*
X021475Y013403D01*
X021475Y012419D01*
X021793Y012534D02*
X023562Y012534D01*
X023554Y012692D02*
X021695Y012692D01*
X021695Y012851D02*
X023554Y012851D01*
X023554Y013009D02*
X021695Y013009D01*
X021695Y013168D02*
X023586Y013168D01*
X023635Y013326D02*
X021695Y013326D01*
X021695Y013485D02*
X023684Y013485D01*
X023771Y013643D02*
X021546Y013643D01*
X021387Y013802D02*
X023879Y013802D01*
X023983Y013955D02*
X023983Y013955D01*
X023983Y013955D01*
X023989Y013960D02*
X021229Y013960D01*
X021070Y014119D02*
X024188Y014119D01*
X024400Y014277D02*
X020912Y014277D01*
X020753Y014436D02*
X024803Y014436D01*
X024841Y014451D02*
X024841Y014451D01*
X025340Y014488D02*
X025340Y014488D01*
X025412Y014594D02*
X020595Y014594D01*
X020448Y014119D02*
X015052Y014119D01*
X015033Y014128D02*
X014961Y014152D01*
X014886Y014164D01*
X014869Y014164D01*
X014869Y013404D01*
X015329Y013404D01*
X015329Y013721D01*
X015317Y013796D01*
X015293Y013868D01*
X015259Y013935D01*
X015215Y013996D01*
X015161Y014050D01*
X015100Y014094D01*
X015033Y014128D01*
X014869Y014119D02*
X014829Y014119D01*
X014829Y013960D02*
X014869Y013960D01*
X014869Y013802D02*
X014829Y013802D01*
X014829Y013643D02*
X014869Y013643D01*
X014869Y013485D02*
X014829Y013485D01*
X015329Y013485D02*
X021082Y013485D01*
X020923Y013643D02*
X015329Y013643D01*
X015315Y013802D02*
X020765Y013802D01*
X020606Y013960D02*
X015241Y013960D01*
X014646Y014119D02*
X013948Y014119D01*
X013750Y014119D02*
X012948Y014119D01*
X012750Y014119D02*
X012069Y014119D01*
X012194Y013960D02*
X012503Y013960D01*
X012421Y013802D02*
X012276Y013802D01*
X012289Y013643D02*
X012409Y013643D01*
X012409Y013485D02*
X012289Y013485D01*
X012289Y013326D02*
X012409Y013326D01*
X012409Y013168D02*
X012289Y013168D01*
X012289Y013009D02*
X012409Y013009D01*
X012469Y012851D02*
X012229Y012851D01*
X012054Y012692D02*
X012629Y012692D01*
X012629Y012534D02*
X012157Y012534D01*
X012328Y012375D02*
X012629Y012375D01*
X012629Y012217D02*
X012364Y012217D01*
X012501Y012058D02*
X012666Y012058D01*
X012659Y011900D02*
X012824Y011900D01*
X012818Y011741D02*
X020463Y011741D01*
X020622Y011583D02*
X014585Y011583D01*
X013994Y012419D02*
X020687Y012419D01*
X021081Y012025D01*
X021395Y011900D02*
X023827Y011900D01*
X023935Y011741D02*
X021275Y011741D01*
X021244Y011583D02*
X024093Y011583D01*
X024291Y011424D02*
X021402Y011424D01*
X021561Y011266D02*
X024609Y011266D01*
X024841Y011175D02*
X024841Y011175D01*
X025412Y011107D02*
X021719Y011107D01*
X021878Y010949D02*
X025412Y010949D01*
X025412Y010790D02*
X022036Y010790D01*
X022195Y010632D02*
X025412Y010632D01*
X025412Y010473D02*
X022353Y010473D01*
X022512Y010315D02*
X025412Y010315D01*
X025412Y010156D02*
X022670Y010156D01*
X022829Y009998D02*
X025412Y009998D01*
X025412Y009839D02*
X022987Y009839D01*
X023146Y009681D02*
X025412Y009681D01*
X025412Y009522D02*
X023304Y009522D01*
X023463Y009364D02*
X025412Y009364D01*
X025412Y009205D02*
X023621Y009205D01*
X023780Y009047D02*
X025412Y009047D01*
X025412Y008888D02*
X023938Y008888D01*
X024097Y008730D02*
X025412Y008730D01*
X025412Y008571D02*
X024255Y008571D01*
X024414Y008413D02*
X025412Y008413D01*
X025412Y008254D02*
X024572Y008254D01*
X024731Y008096D02*
X025412Y008096D01*
X025412Y007937D02*
X024889Y007937D01*
X025215Y007779D02*
X025412Y007779D01*
X025412Y007620D02*
X025333Y007620D01*
X025356Y007462D02*
X025412Y007462D01*
X025412Y007303D02*
X025302Y007303D01*
X025412Y007145D02*
X014658Y007145D01*
X014585Y007303D02*
X024734Y007303D01*
X024680Y007462D02*
X014585Y007462D01*
X014585Y007620D02*
X024584Y007620D01*
X024426Y007779D02*
X014585Y007779D01*
X014585Y007937D02*
X024267Y007937D01*
X024109Y008096D02*
X014585Y008096D01*
X014585Y008254D02*
X023950Y008254D01*
X023792Y008413D02*
X014585Y008413D01*
X014585Y008571D02*
X023633Y008571D01*
X023475Y008730D02*
X014585Y008730D01*
X014585Y008888D02*
X023316Y008888D01*
X023158Y009047D02*
X014585Y009047D01*
X014585Y009205D02*
X022999Y009205D01*
X022841Y009364D02*
X014585Y009364D01*
X014585Y009522D02*
X021800Y009522D01*
X021937Y009522D02*
X022682Y009522D01*
X022524Y009681D02*
X022160Y009681D01*
X022206Y009839D02*
X022365Y009839D01*
X022207Y009998D02*
X022177Y009998D01*
X022048Y010156D02*
X022036Y010156D01*
X021890Y010315D02*
X021725Y010315D01*
X021731Y010473D02*
X021566Y010473D01*
X021573Y010632D02*
X021408Y010632D01*
X021414Y010790D02*
X021249Y010790D01*
X021256Y010949D02*
X021091Y010949D01*
X021097Y011107D02*
X020932Y011107D01*
X020939Y011266D02*
X020774Y011266D01*
X020780Y011424D02*
X020615Y011424D01*
X020490Y011238D02*
X021868Y009860D01*
X021530Y009839D02*
X014585Y009839D01*
X014585Y009681D02*
X021577Y009681D01*
X021419Y009998D02*
X014585Y009998D01*
X014585Y010156D02*
X021261Y010156D01*
X021102Y010315D02*
X014585Y010315D01*
X014585Y010473D02*
X020944Y010473D01*
X020785Y010632D02*
X014585Y010632D01*
X014585Y010790D02*
X020627Y010790D01*
X020468Y010949D02*
X014585Y010949D01*
X013010Y011238D02*
X020490Y011238D01*
X020490Y012025D02*
X025018Y007498D01*
X025412Y006986D02*
X014817Y006986D01*
X014975Y006828D02*
X025412Y006828D01*
X025412Y006669D02*
X015134Y006669D01*
X015292Y006511D02*
X025412Y006511D01*
X025412Y006352D02*
X015451Y006352D01*
X015609Y006194D02*
X025412Y006194D01*
X025412Y006035D02*
X015768Y006035D01*
X015926Y005877D02*
X025412Y005877D01*
X025412Y005718D02*
X018219Y005718D01*
X018269Y005560D02*
X025412Y005560D01*
X025412Y005084D02*
X018237Y005084D01*
X018269Y004926D02*
X025412Y004926D01*
X025412Y004767D02*
X018226Y004767D01*
X018019Y004609D02*
X025412Y004609D01*
X025412Y004450D02*
X014585Y004450D01*
X013572Y004450D01*
X013427Y004534D02*
X013427Y004534D01*
X013099Y004609D02*
X014585Y004609D01*
X015876Y004609D01*
X016050Y004609D02*
X017844Y004609D01*
X017931Y004939D02*
X015963Y004939D01*
X016221Y005159D02*
X016154Y005225D01*
X016221Y005159D02*
X017673Y005159D01*
X017740Y005225D01*
X017761Y005234D01*
X017740Y005243D01*
X017931Y005529D02*
X015963Y005529D01*
X015621Y005560D02*
X014585Y005560D01*
X001650Y005560D01*
X001650Y005718D02*
X014585Y005718D01*
X015463Y005718D01*
X015304Y005877D02*
X014585Y005877D01*
X001650Y005877D01*
X001650Y006035D02*
X014585Y006035D01*
X015146Y006035D01*
X014987Y006194D02*
X014585Y006194D01*
X011153Y006194D01*
X010930Y006194D02*
X001650Y006194D01*
X001650Y006352D02*
X010742Y006352D01*
X010703Y006511D02*
X001650Y006511D01*
X001650Y006669D02*
X010740Y006669D01*
X010822Y006828D02*
X001650Y006828D01*
X001650Y006986D02*
X010822Y006986D01*
X010822Y007145D02*
X001650Y007145D01*
X001650Y007303D02*
X010822Y007303D01*
X010822Y007462D02*
X001650Y007462D01*
X001650Y007620D02*
X010822Y007620D01*
X010822Y007779D02*
X001650Y007779D01*
X001650Y007937D02*
X010822Y007937D01*
X010822Y008096D02*
X001650Y008096D01*
X001650Y008254D02*
X010822Y008254D01*
X010822Y008413D02*
X001650Y008413D01*
X001650Y008571D02*
X010822Y008571D01*
X010822Y008730D02*
X001650Y008730D01*
X001650Y008888D02*
X010822Y008888D01*
X010822Y009047D02*
X001650Y009047D01*
X001650Y009205D02*
X010822Y009205D01*
X010684Y009364D02*
X001650Y009364D01*
X001650Y009522D02*
X010537Y009522D01*
X010507Y009681D02*
X001650Y009681D01*
X001650Y009839D02*
X010552Y009839D01*
X010845Y009663D02*
X011042Y009466D01*
X011042Y006513D01*
X011380Y006511D02*
X014585Y006511D01*
X014670Y006511D01*
X014585Y006352D02*
X014829Y006352D01*
X014585Y006352D02*
X011341Y006352D01*
X011343Y006669D02*
X014512Y006669D01*
X014353Y006828D02*
X011262Y006828D01*
X011262Y006986D02*
X014195Y006986D01*
X014036Y007145D02*
X011262Y007145D01*
X011262Y007303D02*
X013878Y007303D01*
X013719Y007462D02*
X011262Y007462D01*
X011262Y007620D02*
X013561Y007620D01*
X013402Y007779D02*
X011262Y007779D01*
X011262Y007937D02*
X013244Y007937D01*
X013085Y008096D02*
X011262Y008096D01*
X011262Y008254D02*
X012927Y008254D01*
X012768Y008413D02*
X011262Y008413D01*
X011262Y008571D02*
X012610Y008571D01*
X012451Y008730D02*
X011262Y008730D01*
X011262Y008888D02*
X012293Y008888D01*
X012200Y009047D02*
X011262Y009047D01*
X011262Y009205D02*
X012200Y009205D01*
X012200Y009364D02*
X011262Y009364D01*
X011262Y009522D02*
X012200Y009522D01*
X013010Y011238D02*
X012026Y012222D01*
X011895Y012534D02*
X011435Y012534D01*
X011593Y012375D02*
X011723Y012375D01*
X011849Y013384D02*
X011849Y014210D01*
X012849Y013384D02*
X012849Y012187D01*
X013010Y012025D01*
X020490Y012025D01*
X021042Y012375D02*
X021137Y012375D01*
X021156Y012534D02*
X020884Y012534D01*
X021255Y012692D02*
X015127Y012692D01*
X015269Y012851D02*
X021255Y012851D01*
X021255Y013009D02*
X015323Y013009D01*
X015329Y013168D02*
X021255Y013168D01*
X021240Y013326D02*
X015329Y013326D01*
X014571Y012692D02*
X014069Y012692D01*
X014229Y012851D02*
X014429Y012851D01*
X014374Y013009D02*
X014289Y013009D01*
X014289Y013168D02*
X014369Y013168D01*
X014369Y013326D02*
X014289Y013326D01*
X014289Y013485D02*
X014369Y013485D01*
X014369Y013643D02*
X014289Y013643D01*
X014276Y013802D02*
X014382Y013802D01*
X014456Y013960D02*
X014194Y013960D01*
X013849Y013384D02*
X013849Y012565D01*
X013994Y012419D01*
X013727Y012375D02*
X013069Y012375D01*
X013069Y012534D02*
X013629Y012534D01*
X013629Y012692D02*
X013069Y012692D01*
X013229Y012851D02*
X013469Y012851D01*
X013409Y013009D02*
X013289Y013009D01*
X013289Y013168D02*
X013409Y013168D01*
X013409Y013326D02*
X013289Y013326D01*
X013289Y013485D02*
X013409Y013485D01*
X013409Y013643D02*
X013289Y013643D01*
X013276Y013802D02*
X013421Y013802D01*
X013503Y013960D02*
X013194Y013960D01*
X007498Y010450D02*
X007498Y007498D01*
X007301Y007301D01*
X003514Y004450D02*
X002503Y004450D01*
X002662Y004292D02*
X003355Y004292D01*
X003276Y004133D02*
X002741Y004133D01*
X002789Y003975D02*
X003229Y003975D01*
X003229Y003816D02*
X002789Y003816D01*
X002751Y003658D02*
X003266Y003658D01*
X003332Y003499D02*
X002685Y003499D01*
X002527Y003341D02*
X003490Y003341D01*
X001650Y003024D02*
X011152Y003024D01*
X011152Y002865D02*
X001650Y002865D01*
X001650Y002707D02*
X011156Y002707D01*
X011205Y002548D02*
X001650Y002548D01*
X001650Y002390D02*
X011254Y002390D01*
X011306Y002231D02*
X001650Y002231D01*
X001650Y002073D02*
X011414Y002073D01*
X011522Y001914D02*
X001650Y001914D01*
X001650Y001756D02*
X011672Y001756D01*
X011582Y001827D02*
X011582Y001827D01*
X011870Y001597D02*
X001650Y001597D01*
X001650Y001439D02*
X012168Y001439D01*
X012439Y001332D02*
X012439Y001332D01*
X012939Y001295D02*
X012939Y001295D01*
X013427Y001406D02*
X013427Y001406D01*
X013483Y001439D02*
X014585Y001439D01*
X014585Y001597D02*
X013758Y001597D01*
X013861Y001657D02*
X013861Y001657D01*
X013953Y001756D02*
X014585Y001756D01*
X014585Y001914D02*
X014100Y001914D01*
X014201Y002024D02*
X014201Y002024D01*
X014225Y002073D02*
X014585Y002073D01*
X014585Y002231D02*
X014301Y002231D01*
X014378Y002390D02*
X014585Y002390D01*
X014585Y002548D02*
X014430Y002548D01*
X014419Y002475D02*
X014419Y002475D01*
X014454Y002707D02*
X014585Y002707D01*
X014585Y002865D02*
X014477Y002865D01*
X014485Y003024D02*
X014585Y003024D01*
X014585Y003182D02*
X014461Y003182D01*
X014437Y003341D02*
X014585Y003341D01*
X014585Y003499D02*
X014402Y003499D01*
X014326Y003658D02*
X014585Y003658D01*
X014585Y003816D02*
X014250Y003816D01*
X014201Y003917D02*
X014201Y003917D01*
X014147Y003975D02*
X014585Y003975D01*
X014585Y004133D02*
X014000Y004133D01*
X013847Y004292D02*
X014585Y004292D01*
X025412Y004292D01*
X018269Y005462D02*
X018218Y005338D01*
X018123Y005243D01*
X012939Y004645D02*
X012939Y004645D01*
X014585Y001280D02*
X001650Y001280D01*
X001650Y004450D02*
X001714Y004450D01*
X001650Y011266D02*
X002562Y011266D01*
X002244Y011424D02*
X001650Y011424D01*
X001650Y011583D02*
X002045Y011583D01*
X021419Y012058D02*
X023719Y012058D01*
X023660Y012217D02*
X021751Y012217D01*
X021813Y012375D02*
X023611Y012375D01*
X024375Y011358D02*
X024375Y011358D01*
D13*
X021868Y009860D03*
X021081Y012025D03*
X021475Y012419D03*
X025018Y007498D03*
X017931Y005529D03*
X017931Y004939D03*
X015963Y004939D03*
X011042Y006513D03*
X007301Y007301D03*
X010845Y009663D03*
X011632Y010057D03*
X010648Y012025D03*
X012026Y012222D03*
X008876Y012419D03*
X007498Y010450D03*
X005923Y010254D03*
M02*
